G04 #@! TF.GenerationSoftware,KiCad,Pcbnew,8.0.8*
G04 #@! TF.CreationDate,2025-01-20T02:39:11+03:00*
G04 #@! TF.ProjectId,MDR32-K1986BE92FI-DK,4d445233-322d-44b3-9139-383642453932,rev?*
G04 #@! TF.SameCoordinates,Original*
G04 #@! TF.FileFunction,Legend,Top*
G04 #@! TF.FilePolarity,Positive*
%FSLAX46Y46*%
G04 Gerber Fmt 4.6, Leading zero omitted, Abs format (unit mm)*
G04 Created by KiCad (PCBNEW 8.0.8) date 2025-01-20 02:39:11*
%MOMM*%
%LPD*%
G01*
G04 APERTURE LIST*
G04 Aperture macros list*
%AMRoundRect*
0 Rectangle with rounded corners*
0 $1 Rounding radius*
0 $2 $3 $4 $5 $6 $7 $8 $9 X,Y pos of 4 corners*
0 Add a 4 corners polygon primitive as box body*
4,1,4,$2,$3,$4,$5,$6,$7,$8,$9,$2,$3,0*
0 Add four circle primitives for the rounded corners*
1,1,$1+$1,$2,$3*
1,1,$1+$1,$4,$5*
1,1,$1+$1,$6,$7*
1,1,$1+$1,$8,$9*
0 Add four rect primitives between the rounded corners*
20,1,$1+$1,$2,$3,$4,$5,0*
20,1,$1+$1,$4,$5,$6,$7,0*
20,1,$1+$1,$6,$7,$8,$9,0*
20,1,$1+$1,$8,$9,$2,$3,0*%
%AMRotRect*
0 Rectangle, with rotation*
0 The origin of the aperture is its center*
0 $1 length*
0 $2 width*
0 $3 Rotation angle, in degrees counterclockwise*
0 Add horizontal line*
21,1,$1,$2,0,0,$3*%
%AMFreePoly0*
4,1,6,1.000000,0.000000,0.500000,-0.750000,-0.500000,-0.750000,-0.500000,0.750000,0.500000,0.750000,1.000000,0.000000,1.000000,0.000000,$1*%
%AMFreePoly1*
4,1,6,0.500000,-0.750000,-0.650000,-0.750000,-0.150000,0.000000,-0.650000,0.750000,0.500000,0.750000,0.500000,-0.750000,0.500000,-0.750000,$1*%
%AMFreePoly2*
4,1,14,0.355806,0.106694,0.419194,0.043306,0.437500,-0.000888,0.437500,-0.062500,0.419194,-0.106694,0.375000,-0.125000,-0.375000,-0.125000,-0.419194,-0.106694,-0.437500,-0.062500,-0.437500,0.062500,-0.419194,0.106694,-0.375000,0.125000,0.311612,0.125000,0.355806,0.106694,0.355806,0.106694,$1*%
%AMFreePoly3*
4,1,14,0.419194,0.106694,0.437500,0.062500,0.437500,0.000888,0.419194,-0.043306,0.355806,-0.106694,0.311612,-0.125000,-0.375000,-0.125000,-0.419194,-0.106694,-0.437500,-0.062500,-0.437500,0.062500,-0.419194,0.106694,-0.375000,0.125000,0.375000,0.125000,0.419194,0.106694,0.419194,0.106694,$1*%
%AMFreePoly4*
4,1,14,0.106694,0.419194,0.125000,0.375000,0.125000,-0.375000,0.106694,-0.419194,0.062500,-0.437500,-0.062500,-0.437500,-0.106694,-0.419194,-0.125000,-0.375000,-0.125000,0.311612,-0.106694,0.355806,-0.043306,0.419194,0.000888,0.437500,0.062500,0.437500,0.106694,0.419194,0.106694,0.419194,$1*%
%AMFreePoly5*
4,1,14,0.043306,0.419194,0.106694,0.355806,0.125000,0.311612,0.125000,-0.375000,0.106694,-0.419194,0.062500,-0.437500,-0.062500,-0.437500,-0.106694,-0.419194,-0.125000,-0.375000,-0.125000,0.375000,-0.106694,0.419194,-0.062500,0.437500,-0.000888,0.437500,0.043306,0.419194,0.043306,0.419194,$1*%
%AMFreePoly6*
4,1,14,0.419194,0.106694,0.437500,0.062500,0.437500,-0.062500,0.419194,-0.106694,0.375000,-0.125000,-0.311612,-0.125000,-0.355806,-0.106694,-0.419194,-0.043306,-0.437500,0.000888,-0.437500,0.062500,-0.419194,0.106694,-0.375000,0.125000,0.375000,0.125000,0.419194,0.106694,0.419194,0.106694,$1*%
%AMFreePoly7*
4,1,14,0.419194,0.106694,0.437500,0.062500,0.437500,-0.062500,0.419194,-0.106694,0.375000,-0.125000,-0.375000,-0.125000,-0.419194,-0.106694,-0.437500,-0.062500,-0.437500,-0.000888,-0.419194,0.043306,-0.355806,0.106694,-0.311612,0.125000,0.375000,0.125000,0.419194,0.106694,0.419194,0.106694,$1*%
%AMFreePoly8*
4,1,14,0.106694,0.419194,0.125000,0.375000,0.125000,-0.311612,0.106694,-0.355806,0.043306,-0.419194,-0.000888,-0.437500,-0.062500,-0.437500,-0.106694,-0.419194,-0.125000,-0.375000,-0.125000,0.375000,-0.106694,0.419194,-0.062500,0.437500,0.062500,0.437500,0.106694,0.419194,0.106694,0.419194,$1*%
%AMFreePoly9*
4,1,14,0.106694,0.419194,0.125000,0.375000,0.125000,-0.375000,0.106694,-0.419194,0.062500,-0.437500,0.000888,-0.437500,-0.043306,-0.419194,-0.106694,-0.355806,-0.125000,-0.311612,-0.125000,0.375000,-0.106694,0.419194,-0.062500,0.437500,0.062500,0.437500,0.106694,0.419194,0.106694,0.419194,$1*%
G04 Aperture macros list end*
%ADD10C,0.150000*%
%ADD11C,0.200000*%
%ADD12C,0.120000*%
%ADD13RoundRect,0.250000X-0.475000X0.250000X-0.475000X-0.250000X0.475000X-0.250000X0.475000X0.250000X0*%
%ADD14RoundRect,0.225000X0.250000X-0.225000X0.250000X0.225000X-0.250000X0.225000X-0.250000X-0.225000X0*%
%ADD15RoundRect,0.243750X-0.456250X0.243750X-0.456250X-0.243750X0.456250X-0.243750X0.456250X0.243750X0*%
%ADD16RoundRect,0.200000X-0.275000X0.200000X-0.275000X-0.200000X0.275000X-0.200000X0.275000X0.200000X0*%
%ADD17RoundRect,0.218750X0.256250X-0.218750X0.256250X0.218750X-0.256250X0.218750X-0.256250X-0.218750X0*%
%ADD18RoundRect,0.200000X0.275000X-0.200000X0.275000X0.200000X-0.275000X0.200000X-0.275000X-0.200000X0*%
%ADD19RoundRect,0.200000X-0.200000X-0.275000X0.200000X-0.275000X0.200000X0.275000X-0.200000X0.275000X0*%
%ADD20RoundRect,0.243750X0.456250X-0.243750X0.456250X0.243750X-0.456250X0.243750X-0.456250X-0.243750X0*%
%ADD21RotRect,1.000000X1.800000X135.000000*%
%ADD22RoundRect,0.375000X-0.625000X-0.375000X0.625000X-0.375000X0.625000X0.375000X-0.625000X0.375000X0*%
%ADD23RoundRect,0.500000X-0.500000X-1.400000X0.500000X-1.400000X0.500000X1.400000X-0.500000X1.400000X0*%
%ADD24RotRect,1.400000X1.200000X225.000000*%
%ADD25RoundRect,0.225000X0.017678X-0.335876X0.335876X-0.017678X-0.017678X0.335876X-0.335876X0.017678X0*%
%ADD26RoundRect,0.200000X0.200000X0.275000X-0.200000X0.275000X-0.200000X-0.275000X0.200000X-0.275000X0*%
%ADD27R,0.900000X1.700000*%
%ADD28RoundRect,0.218750X-0.256250X0.218750X-0.256250X-0.218750X0.256250X-0.218750X0.256250X0.218750X0*%
%ADD29R,1.700000X1.700000*%
%ADD30O,1.700000X1.700000*%
%ADD31FreePoly0,0.000000*%
%ADD32FreePoly1,0.000000*%
%ADD33RoundRect,0.225000X-0.250000X0.225000X-0.250000X-0.225000X0.250000X-0.225000X0.250000X0.225000X0*%
%ADD34RoundRect,0.250000X0.475000X-0.250000X0.475000X0.250000X-0.475000X0.250000X-0.475000X-0.250000X0*%
%ADD35RoundRect,0.225000X-0.335876X-0.017678X-0.017678X-0.335876X0.335876X0.017678X0.017678X0.335876X0*%
%ADD36RoundRect,0.150000X0.587500X0.150000X-0.587500X0.150000X-0.587500X-0.150000X0.587500X-0.150000X0*%
%ADD37RoundRect,0.225000X0.335876X0.017678X0.017678X0.335876X-0.335876X-0.017678X-0.017678X-0.335876X0*%
%ADD38RoundRect,0.225000X0.375000X-0.225000X0.375000X0.225000X-0.375000X0.225000X-0.375000X-0.225000X0*%
%ADD39FreePoly2,225.000000*%
%ADD40RoundRect,0.062500X0.220971X0.309359X-0.309359X-0.220971X-0.220971X-0.309359X0.309359X0.220971X0*%
%ADD41FreePoly3,225.000000*%
%ADD42FreePoly4,225.000000*%
%ADD43RoundRect,0.062500X-0.220971X0.309359X-0.309359X0.220971X0.220971X-0.309359X0.309359X-0.220971X0*%
%ADD44FreePoly5,225.000000*%
%ADD45FreePoly6,225.000000*%
%ADD46FreePoly7,225.000000*%
%ADD47FreePoly8,225.000000*%
%ADD48FreePoly9,225.000000*%
%ADD49RotRect,7.500000X7.500000X225.000000*%
%ADD50R,0.760000X1.250000*%
%ADD51RoundRect,0.250000X-0.425000X0.450000X-0.425000X-0.450000X0.425000X-0.450000X0.425000X0.450000X0*%
%ADD52C,0.650000*%
%ADD53RoundRect,0.150000X-0.400000X0.150000X-0.400000X-0.150000X0.400000X-0.150000X0.400000X0.150000X0*%
%ADD54RoundRect,0.150000X-0.425000X0.150000X-0.425000X-0.150000X0.425000X-0.150000X0.425000X0.150000X0*%
%ADD55RoundRect,0.075000X-0.500000X0.075000X-0.500000X-0.075000X0.500000X-0.075000X0.500000X0.075000X0*%
%ADD56O,2.100000X1.000000*%
%ADD57O,1.800000X1.000000*%
G04 APERTURE END LIST*
D10*
X76020000Y-17670000D02*
X76020000Y-18800000D01*
X50600000Y-36540000D02*
X50600000Y-37770000D01*
X22650000Y-17690000D02*
X22650000Y-18800000D01*
X30300000Y-17680000D02*
X42500000Y-17670000D01*
D11*
X49660000Y-27850000D02*
X50010000Y-27850000D01*
X48145000Y-27845000D02*
X48495000Y-27845000D01*
D10*
X60790000Y-17680000D02*
X60790000Y-18790000D01*
X76020000Y-17670000D02*
X85710000Y-17670000D01*
X18100000Y-17700000D02*
X22200000Y-17700000D01*
X30250000Y-37770000D02*
X42500000Y-37770000D01*
D11*
X48495000Y-27845000D02*
X48345000Y-27615000D01*
X49860000Y-27620000D02*
X49660000Y-27850000D01*
D10*
X65850000Y-37780000D02*
X85700000Y-37780000D01*
X53160000Y-17680000D02*
X60300000Y-17680000D01*
X50600000Y-37770000D02*
X65400000Y-37780000D01*
X18100000Y-37800000D02*
X24700000Y-37800000D01*
X46000000Y-17670000D02*
X52690000Y-17670000D01*
X30250000Y-36600000D02*
X30250000Y-37770000D01*
X53160000Y-17680000D02*
X53160000Y-18810000D01*
X25200000Y-37760000D02*
X29850000Y-37760000D01*
X22650000Y-17690000D02*
X29850000Y-17690000D01*
X46000000Y-37780000D02*
X50100000Y-37780000D01*
X30300000Y-17680000D02*
X30300000Y-18800000D01*
D11*
X50010000Y-27850000D02*
X49860000Y-27620000D01*
X48345000Y-27615000D02*
X48145000Y-27845000D01*
D10*
X25200000Y-36700000D02*
X25200000Y-37760000D01*
X60790000Y-17680000D02*
X75600000Y-17670000D01*
X65850000Y-36650000D02*
X65850000Y-37780000D01*
X64491009Y-35029887D02*
X64538628Y-34887030D01*
X64538628Y-34887030D02*
X64586247Y-34839411D01*
X64586247Y-34839411D02*
X64681485Y-34791792D01*
X64681485Y-34791792D02*
X64824342Y-34791792D01*
X64824342Y-34791792D02*
X64919580Y-34839411D01*
X64919580Y-34839411D02*
X64967200Y-34887030D01*
X64967200Y-34887030D02*
X65014819Y-34982268D01*
X65014819Y-34982268D02*
X65014819Y-35363220D01*
X65014819Y-35363220D02*
X64014819Y-35363220D01*
X64014819Y-35363220D02*
X64014819Y-35029887D01*
X64014819Y-35029887D02*
X64062438Y-34934649D01*
X64062438Y-34934649D02*
X64110057Y-34887030D01*
X64110057Y-34887030D02*
X64205295Y-34839411D01*
X64205295Y-34839411D02*
X64300533Y-34839411D01*
X64300533Y-34839411D02*
X64395771Y-34887030D01*
X64395771Y-34887030D02*
X64443390Y-34934649D01*
X64443390Y-34934649D02*
X64491009Y-35029887D01*
X64491009Y-35029887D02*
X64491009Y-35363220D01*
X65014819Y-33839411D02*
X65014819Y-34410839D01*
X65014819Y-34125125D02*
X64014819Y-34125125D01*
X64014819Y-34125125D02*
X64157676Y-34220363D01*
X64157676Y-34220363D02*
X64252914Y-34315601D01*
X64252914Y-34315601D02*
X64300533Y-34410839D01*
X64014819Y-33220363D02*
X64014819Y-33125125D01*
X64014819Y-33125125D02*
X64062438Y-33029887D01*
X64062438Y-33029887D02*
X64110057Y-32982268D01*
X64110057Y-32982268D02*
X64205295Y-32934649D01*
X64205295Y-32934649D02*
X64395771Y-32887030D01*
X64395771Y-32887030D02*
X64633866Y-32887030D01*
X64633866Y-32887030D02*
X64824342Y-32934649D01*
X64824342Y-32934649D02*
X64919580Y-32982268D01*
X64919580Y-32982268D02*
X64967200Y-33029887D01*
X64967200Y-33029887D02*
X65014819Y-33125125D01*
X65014819Y-33125125D02*
X65014819Y-33220363D01*
X65014819Y-33220363D02*
X64967200Y-33315601D01*
X64967200Y-33315601D02*
X64919580Y-33363220D01*
X64919580Y-33363220D02*
X64824342Y-33410839D01*
X64824342Y-33410839D02*
X64633866Y-33458458D01*
X64633866Y-33458458D02*
X64395771Y-33458458D01*
X64395771Y-33458458D02*
X64205295Y-33410839D01*
X64205295Y-33410839D02*
X64110057Y-33363220D01*
X64110057Y-33363220D02*
X64062438Y-33315601D01*
X64062438Y-33315601D02*
X64014819Y-33220363D01*
X34519999Y-19785180D02*
X34519999Y-20785180D01*
X34519999Y-20785180D02*
X34281904Y-20785180D01*
X34281904Y-20785180D02*
X34139047Y-20737561D01*
X34139047Y-20737561D02*
X34043809Y-20642323D01*
X34043809Y-20642323D02*
X33996190Y-20547085D01*
X33996190Y-20547085D02*
X33948571Y-20356609D01*
X33948571Y-20356609D02*
X33948571Y-20213752D01*
X33948571Y-20213752D02*
X33996190Y-20023276D01*
X33996190Y-20023276D02*
X34043809Y-19928038D01*
X34043809Y-19928038D02*
X34139047Y-19832800D01*
X34139047Y-19832800D02*
X34281904Y-19785180D01*
X34281904Y-19785180D02*
X34519999Y-19785180D01*
X33519999Y-19785180D02*
X33519999Y-20785180D01*
X21403866Y-22503220D02*
X21403866Y-21741316D01*
X21784819Y-22122268D02*
X21022914Y-22122268D01*
X20784819Y-20788935D02*
X20784819Y-21265125D01*
X20784819Y-21265125D02*
X21261009Y-21312744D01*
X21261009Y-21312744D02*
X21213390Y-21265125D01*
X21213390Y-21265125D02*
X21165771Y-21169887D01*
X21165771Y-21169887D02*
X21165771Y-20931792D01*
X21165771Y-20931792D02*
X21213390Y-20836554D01*
X21213390Y-20836554D02*
X21261009Y-20788935D01*
X21261009Y-20788935D02*
X21356247Y-20741316D01*
X21356247Y-20741316D02*
X21594342Y-20741316D01*
X21594342Y-20741316D02*
X21689580Y-20788935D01*
X21689580Y-20788935D02*
X21737200Y-20836554D01*
X21737200Y-20836554D02*
X21784819Y-20931792D01*
X21784819Y-20931792D02*
X21784819Y-21169887D01*
X21784819Y-21169887D02*
X21737200Y-21265125D01*
X21737200Y-21265125D02*
X21689580Y-21312744D01*
X20784819Y-20455601D02*
X21784819Y-20122268D01*
X21784819Y-20122268D02*
X20784819Y-19788935D01*
X74639411Y-23993866D02*
X75401316Y-23993866D01*
X75020363Y-24374819D02*
X75020363Y-23612914D01*
X75782268Y-23374819D02*
X76401315Y-23374819D01*
X76401315Y-23374819D02*
X76067982Y-23755771D01*
X76067982Y-23755771D02*
X76210839Y-23755771D01*
X76210839Y-23755771D02*
X76306077Y-23803390D01*
X76306077Y-23803390D02*
X76353696Y-23851009D01*
X76353696Y-23851009D02*
X76401315Y-23946247D01*
X76401315Y-23946247D02*
X76401315Y-24184342D01*
X76401315Y-24184342D02*
X76353696Y-24279580D01*
X76353696Y-24279580D02*
X76306077Y-24327200D01*
X76306077Y-24327200D02*
X76210839Y-24374819D01*
X76210839Y-24374819D02*
X75925125Y-24374819D01*
X75925125Y-24374819D02*
X75829887Y-24327200D01*
X75829887Y-24327200D02*
X75782268Y-24279580D01*
X76687030Y-23374819D02*
X77020363Y-24374819D01*
X77020363Y-24374819D02*
X77353696Y-23374819D01*
X77591792Y-23374819D02*
X78210839Y-23374819D01*
X78210839Y-23374819D02*
X77877506Y-23755771D01*
X77877506Y-23755771D02*
X78020363Y-23755771D01*
X78020363Y-23755771D02*
X78115601Y-23803390D01*
X78115601Y-23803390D02*
X78163220Y-23851009D01*
X78163220Y-23851009D02*
X78210839Y-23946247D01*
X78210839Y-23946247D02*
X78210839Y-24184342D01*
X78210839Y-24184342D02*
X78163220Y-24279580D01*
X78163220Y-24279580D02*
X78115601Y-24327200D01*
X78115601Y-24327200D02*
X78020363Y-24374819D01*
X78020363Y-24374819D02*
X77734649Y-24374819D01*
X77734649Y-24374819D02*
X77639411Y-24327200D01*
X77639411Y-24327200D02*
X77591792Y-24279580D01*
X45554580Y-19006666D02*
X45602200Y-19054285D01*
X45602200Y-19054285D02*
X45649819Y-19197142D01*
X45649819Y-19197142D02*
X45649819Y-19292380D01*
X45649819Y-19292380D02*
X45602200Y-19435237D01*
X45602200Y-19435237D02*
X45506961Y-19530475D01*
X45506961Y-19530475D02*
X45411723Y-19578094D01*
X45411723Y-19578094D02*
X45221247Y-19625713D01*
X45221247Y-19625713D02*
X45078390Y-19625713D01*
X45078390Y-19625713D02*
X44887914Y-19578094D01*
X44887914Y-19578094D02*
X44792676Y-19530475D01*
X44792676Y-19530475D02*
X44697438Y-19435237D01*
X44697438Y-19435237D02*
X44649819Y-19292380D01*
X44649819Y-19292380D02*
X44649819Y-19197142D01*
X44649819Y-19197142D02*
X44697438Y-19054285D01*
X44697438Y-19054285D02*
X44745057Y-19006666D01*
X44649819Y-18387618D02*
X44649819Y-18292380D01*
X44649819Y-18292380D02*
X44697438Y-18197142D01*
X44697438Y-18197142D02*
X44745057Y-18149523D01*
X44745057Y-18149523D02*
X44840295Y-18101904D01*
X44840295Y-18101904D02*
X45030771Y-18054285D01*
X45030771Y-18054285D02*
X45268866Y-18054285D01*
X45268866Y-18054285D02*
X45459342Y-18101904D01*
X45459342Y-18101904D02*
X45554580Y-18149523D01*
X45554580Y-18149523D02*
X45602200Y-18197142D01*
X45602200Y-18197142D02*
X45649819Y-18292380D01*
X45649819Y-18292380D02*
X45649819Y-18387618D01*
X45649819Y-18387618D02*
X45602200Y-18482856D01*
X45602200Y-18482856D02*
X45554580Y-18530475D01*
X45554580Y-18530475D02*
X45459342Y-18578094D01*
X45459342Y-18578094D02*
X45268866Y-18625713D01*
X45268866Y-18625713D02*
X45030771Y-18625713D01*
X45030771Y-18625713D02*
X44840295Y-18578094D01*
X44840295Y-18578094D02*
X44745057Y-18530475D01*
X44745057Y-18530475D02*
X44697438Y-18482856D01*
X44697438Y-18482856D02*
X44649819Y-18387618D01*
X26293333Y-35654819D02*
X25960000Y-35178628D01*
X25721905Y-35654819D02*
X25721905Y-34654819D01*
X25721905Y-34654819D02*
X26102857Y-34654819D01*
X26102857Y-34654819D02*
X26198095Y-34702438D01*
X26198095Y-34702438D02*
X26245714Y-34750057D01*
X26245714Y-34750057D02*
X26293333Y-34845295D01*
X26293333Y-34845295D02*
X26293333Y-34988152D01*
X26293333Y-34988152D02*
X26245714Y-35083390D01*
X26245714Y-35083390D02*
X26198095Y-35131009D01*
X26198095Y-35131009D02*
X26102857Y-35178628D01*
X26102857Y-35178628D02*
X25721905Y-35178628D01*
X26674286Y-35607200D02*
X26817143Y-35654819D01*
X26817143Y-35654819D02*
X27055238Y-35654819D01*
X27055238Y-35654819D02*
X27150476Y-35607200D01*
X27150476Y-35607200D02*
X27198095Y-35559580D01*
X27198095Y-35559580D02*
X27245714Y-35464342D01*
X27245714Y-35464342D02*
X27245714Y-35369104D01*
X27245714Y-35369104D02*
X27198095Y-35273866D01*
X27198095Y-35273866D02*
X27150476Y-35226247D01*
X27150476Y-35226247D02*
X27055238Y-35178628D01*
X27055238Y-35178628D02*
X26864762Y-35131009D01*
X26864762Y-35131009D02*
X26769524Y-35083390D01*
X26769524Y-35083390D02*
X26721905Y-35035771D01*
X26721905Y-35035771D02*
X26674286Y-34940533D01*
X26674286Y-34940533D02*
X26674286Y-34845295D01*
X26674286Y-34845295D02*
X26721905Y-34750057D01*
X26721905Y-34750057D02*
X26769524Y-34702438D01*
X26769524Y-34702438D02*
X26864762Y-34654819D01*
X26864762Y-34654819D02*
X27102857Y-34654819D01*
X27102857Y-34654819D02*
X27245714Y-34702438D01*
X50654819Y-24173220D02*
X51464342Y-24173220D01*
X51464342Y-24173220D02*
X51559580Y-24125601D01*
X51559580Y-24125601D02*
X51607200Y-24077982D01*
X51607200Y-24077982D02*
X51654819Y-23982744D01*
X51654819Y-23982744D02*
X51654819Y-23792268D01*
X51654819Y-23792268D02*
X51607200Y-23697030D01*
X51607200Y-23697030D02*
X51559580Y-23649411D01*
X51559580Y-23649411D02*
X51464342Y-23601792D01*
X51464342Y-23601792D02*
X50654819Y-23601792D01*
X51607200Y-23173220D02*
X51654819Y-23030363D01*
X51654819Y-23030363D02*
X51654819Y-22792268D01*
X51654819Y-22792268D02*
X51607200Y-22697030D01*
X51607200Y-22697030D02*
X51559580Y-22649411D01*
X51559580Y-22649411D02*
X51464342Y-22601792D01*
X51464342Y-22601792D02*
X51369104Y-22601792D01*
X51369104Y-22601792D02*
X51273866Y-22649411D01*
X51273866Y-22649411D02*
X51226247Y-22697030D01*
X51226247Y-22697030D02*
X51178628Y-22792268D01*
X51178628Y-22792268D02*
X51131009Y-22982744D01*
X51131009Y-22982744D02*
X51083390Y-23077982D01*
X51083390Y-23077982D02*
X51035771Y-23125601D01*
X51035771Y-23125601D02*
X50940533Y-23173220D01*
X50940533Y-23173220D02*
X50845295Y-23173220D01*
X50845295Y-23173220D02*
X50750057Y-23125601D01*
X50750057Y-23125601D02*
X50702438Y-23077982D01*
X50702438Y-23077982D02*
X50654819Y-22982744D01*
X50654819Y-22982744D02*
X50654819Y-22744649D01*
X50654819Y-22744649D02*
X50702438Y-22601792D01*
X51654819Y-21601792D02*
X51178628Y-21935125D01*
X51654819Y-22173220D02*
X50654819Y-22173220D01*
X50654819Y-22173220D02*
X50654819Y-21792268D01*
X50654819Y-21792268D02*
X50702438Y-21697030D01*
X50702438Y-21697030D02*
X50750057Y-21649411D01*
X50750057Y-21649411D02*
X50845295Y-21601792D01*
X50845295Y-21601792D02*
X50988152Y-21601792D01*
X50988152Y-21601792D02*
X51083390Y-21649411D01*
X51083390Y-21649411D02*
X51131009Y-21697030D01*
X51131009Y-21697030D02*
X51178628Y-21792268D01*
X51178628Y-21792268D02*
X51178628Y-22173220D01*
X82509104Y-35410839D02*
X82509104Y-34934649D01*
X82794819Y-35506077D02*
X81794819Y-35172744D01*
X81794819Y-35172744D02*
X82794819Y-34839411D01*
X82794819Y-33982268D02*
X82794819Y-34553696D01*
X82794819Y-34267982D02*
X81794819Y-34267982D01*
X81794819Y-34267982D02*
X81937676Y-34363220D01*
X81937676Y-34363220D02*
X82032914Y-34458458D01*
X82032914Y-34458458D02*
X82080533Y-34553696D01*
X51791009Y-35029887D02*
X51838628Y-34887030D01*
X51838628Y-34887030D02*
X51886247Y-34839411D01*
X51886247Y-34839411D02*
X51981485Y-34791792D01*
X51981485Y-34791792D02*
X52124342Y-34791792D01*
X52124342Y-34791792D02*
X52219580Y-34839411D01*
X52219580Y-34839411D02*
X52267200Y-34887030D01*
X52267200Y-34887030D02*
X52314819Y-34982268D01*
X52314819Y-34982268D02*
X52314819Y-35363220D01*
X52314819Y-35363220D02*
X51314819Y-35363220D01*
X51314819Y-35363220D02*
X51314819Y-35029887D01*
X51314819Y-35029887D02*
X51362438Y-34934649D01*
X51362438Y-34934649D02*
X51410057Y-34887030D01*
X51410057Y-34887030D02*
X51505295Y-34839411D01*
X51505295Y-34839411D02*
X51600533Y-34839411D01*
X51600533Y-34839411D02*
X51695771Y-34887030D01*
X51695771Y-34887030D02*
X51743390Y-34934649D01*
X51743390Y-34934649D02*
X51791009Y-35029887D01*
X51791009Y-35029887D02*
X51791009Y-35363220D01*
X51314819Y-33887030D02*
X51314819Y-34363220D01*
X51314819Y-34363220D02*
X51791009Y-34410839D01*
X51791009Y-34410839D02*
X51743390Y-34363220D01*
X51743390Y-34363220D02*
X51695771Y-34267982D01*
X51695771Y-34267982D02*
X51695771Y-34029887D01*
X51695771Y-34029887D02*
X51743390Y-33934649D01*
X51743390Y-33934649D02*
X51791009Y-33887030D01*
X51791009Y-33887030D02*
X51886247Y-33839411D01*
X51886247Y-33839411D02*
X52124342Y-33839411D01*
X52124342Y-33839411D02*
X52219580Y-33887030D01*
X52219580Y-33887030D02*
X52267200Y-33934649D01*
X52267200Y-33934649D02*
X52314819Y-34029887D01*
X52314819Y-34029887D02*
X52314819Y-34267982D01*
X52314819Y-34267982D02*
X52267200Y-34363220D01*
X52267200Y-34363220D02*
X52219580Y-34410839D01*
X47854819Y-27002744D02*
X47854819Y-26812268D01*
X47854819Y-26812268D02*
X47902438Y-26717030D01*
X47902438Y-26717030D02*
X47997676Y-26621792D01*
X47997676Y-26621792D02*
X48188152Y-26574173D01*
X48188152Y-26574173D02*
X48521485Y-26574173D01*
X48521485Y-26574173D02*
X48711961Y-26621792D01*
X48711961Y-26621792D02*
X48807200Y-26717030D01*
X48807200Y-26717030D02*
X48854819Y-26812268D01*
X48854819Y-26812268D02*
X48854819Y-27002744D01*
X48854819Y-27002744D02*
X48807200Y-27097982D01*
X48807200Y-27097982D02*
X48711961Y-27193220D01*
X48711961Y-27193220D02*
X48521485Y-27240839D01*
X48521485Y-27240839D02*
X48188152Y-27240839D01*
X48188152Y-27240839D02*
X47997676Y-27193220D01*
X47997676Y-27193220D02*
X47902438Y-27097982D01*
X47902438Y-27097982D02*
X47854819Y-27002744D01*
X48854819Y-26145601D02*
X47854819Y-26145601D01*
X47854819Y-26145601D02*
X48854819Y-25574173D01*
X48854819Y-25574173D02*
X47854819Y-25574173D01*
X59411009Y-35029887D02*
X59458628Y-34887030D01*
X59458628Y-34887030D02*
X59506247Y-34839411D01*
X59506247Y-34839411D02*
X59601485Y-34791792D01*
X59601485Y-34791792D02*
X59744342Y-34791792D01*
X59744342Y-34791792D02*
X59839580Y-34839411D01*
X59839580Y-34839411D02*
X59887200Y-34887030D01*
X59887200Y-34887030D02*
X59934819Y-34982268D01*
X59934819Y-34982268D02*
X59934819Y-35363220D01*
X59934819Y-35363220D02*
X58934819Y-35363220D01*
X58934819Y-35363220D02*
X58934819Y-35029887D01*
X58934819Y-35029887D02*
X58982438Y-34934649D01*
X58982438Y-34934649D02*
X59030057Y-34887030D01*
X59030057Y-34887030D02*
X59125295Y-34839411D01*
X59125295Y-34839411D02*
X59220533Y-34839411D01*
X59220533Y-34839411D02*
X59315771Y-34887030D01*
X59315771Y-34887030D02*
X59363390Y-34934649D01*
X59363390Y-34934649D02*
X59411009Y-35029887D01*
X59411009Y-35029887D02*
X59411009Y-35363220D01*
X59363390Y-34220363D02*
X59315771Y-34315601D01*
X59315771Y-34315601D02*
X59268152Y-34363220D01*
X59268152Y-34363220D02*
X59172914Y-34410839D01*
X59172914Y-34410839D02*
X59125295Y-34410839D01*
X59125295Y-34410839D02*
X59030057Y-34363220D01*
X59030057Y-34363220D02*
X58982438Y-34315601D01*
X58982438Y-34315601D02*
X58934819Y-34220363D01*
X58934819Y-34220363D02*
X58934819Y-34029887D01*
X58934819Y-34029887D02*
X58982438Y-33934649D01*
X58982438Y-33934649D02*
X59030057Y-33887030D01*
X59030057Y-33887030D02*
X59125295Y-33839411D01*
X59125295Y-33839411D02*
X59172914Y-33839411D01*
X59172914Y-33839411D02*
X59268152Y-33887030D01*
X59268152Y-33887030D02*
X59315771Y-33934649D01*
X59315771Y-33934649D02*
X59363390Y-34029887D01*
X59363390Y-34029887D02*
X59363390Y-34220363D01*
X59363390Y-34220363D02*
X59411009Y-34315601D01*
X59411009Y-34315601D02*
X59458628Y-34363220D01*
X59458628Y-34363220D02*
X59553866Y-34410839D01*
X59553866Y-34410839D02*
X59744342Y-34410839D01*
X59744342Y-34410839D02*
X59839580Y-34363220D01*
X59839580Y-34363220D02*
X59887200Y-34315601D01*
X59887200Y-34315601D02*
X59934819Y-34220363D01*
X59934819Y-34220363D02*
X59934819Y-34029887D01*
X59934819Y-34029887D02*
X59887200Y-33934649D01*
X59887200Y-33934649D02*
X59839580Y-33887030D01*
X59839580Y-33887030D02*
X59744342Y-33839411D01*
X59744342Y-33839411D02*
X59553866Y-33839411D01*
X59553866Y-33839411D02*
X59458628Y-33887030D01*
X59458628Y-33887030D02*
X59411009Y-33934649D01*
X59411009Y-33934649D02*
X59363390Y-34029887D01*
X38660000Y-35654819D02*
X38660000Y-34654819D01*
X38660000Y-34654819D02*
X38898095Y-34654819D01*
X38898095Y-34654819D02*
X39040952Y-34702438D01*
X39040952Y-34702438D02*
X39136190Y-34797676D01*
X39136190Y-34797676D02*
X39183809Y-34892914D01*
X39183809Y-34892914D02*
X39231428Y-35083390D01*
X39231428Y-35083390D02*
X39231428Y-35226247D01*
X39231428Y-35226247D02*
X39183809Y-35416723D01*
X39183809Y-35416723D02*
X39136190Y-35511961D01*
X39136190Y-35511961D02*
X39040952Y-35607200D01*
X39040952Y-35607200D02*
X38898095Y-35654819D01*
X38898095Y-35654819D02*
X38660000Y-35654819D01*
X39660000Y-35654819D02*
X39660000Y-34654819D01*
X36429523Y-35559580D02*
X36381904Y-35607200D01*
X36381904Y-35607200D02*
X36239047Y-35654819D01*
X36239047Y-35654819D02*
X36143809Y-35654819D01*
X36143809Y-35654819D02*
X36000952Y-35607200D01*
X36000952Y-35607200D02*
X35905714Y-35511961D01*
X35905714Y-35511961D02*
X35858095Y-35416723D01*
X35858095Y-35416723D02*
X35810476Y-35226247D01*
X35810476Y-35226247D02*
X35810476Y-35083390D01*
X35810476Y-35083390D02*
X35858095Y-34892914D01*
X35858095Y-34892914D02*
X35905714Y-34797676D01*
X35905714Y-34797676D02*
X36000952Y-34702438D01*
X36000952Y-34702438D02*
X36143809Y-34654819D01*
X36143809Y-34654819D02*
X36239047Y-34654819D01*
X36239047Y-34654819D02*
X36381904Y-34702438D01*
X36381904Y-34702438D02*
X36429523Y-34750057D01*
X36858095Y-35654819D02*
X36858095Y-34654819D01*
X37429523Y-35654819D02*
X37000952Y-35083390D01*
X37429523Y-34654819D02*
X36858095Y-35226247D01*
X74889104Y-35410839D02*
X74889104Y-34934649D01*
X75174819Y-35506077D02*
X74174819Y-35172744D01*
X74174819Y-35172744D02*
X75174819Y-34839411D01*
X74508152Y-34077506D02*
X75174819Y-34077506D01*
X74127200Y-34315601D02*
X74841485Y-34553696D01*
X74841485Y-34553696D02*
X74841485Y-33934649D01*
X85049104Y-35410839D02*
X85049104Y-34934649D01*
X85334819Y-35506077D02*
X84334819Y-35172744D01*
X84334819Y-35172744D02*
X85334819Y-34839411D01*
X84334819Y-34315601D02*
X84334819Y-34220363D01*
X84334819Y-34220363D02*
X84382438Y-34125125D01*
X84382438Y-34125125D02*
X84430057Y-34077506D01*
X84430057Y-34077506D02*
X84525295Y-34029887D01*
X84525295Y-34029887D02*
X84715771Y-33982268D01*
X84715771Y-33982268D02*
X84953866Y-33982268D01*
X84953866Y-33982268D02*
X85144342Y-34029887D01*
X85144342Y-34029887D02*
X85239580Y-34077506D01*
X85239580Y-34077506D02*
X85287200Y-34125125D01*
X85287200Y-34125125D02*
X85334819Y-34220363D01*
X85334819Y-34220363D02*
X85334819Y-34315601D01*
X85334819Y-34315601D02*
X85287200Y-34410839D01*
X85287200Y-34410839D02*
X85239580Y-34458458D01*
X85239580Y-34458458D02*
X85144342Y-34506077D01*
X85144342Y-34506077D02*
X84953866Y-34553696D01*
X84953866Y-34553696D02*
X84715771Y-34553696D01*
X84715771Y-34553696D02*
X84525295Y-34506077D01*
X84525295Y-34506077D02*
X84430057Y-34458458D01*
X84430057Y-34458458D02*
X84382438Y-34410839D01*
X84382438Y-34410839D02*
X84334819Y-34315601D01*
X67269104Y-35410839D02*
X67269104Y-34934649D01*
X67554819Y-35506077D02*
X66554819Y-35172744D01*
X66554819Y-35172744D02*
X67554819Y-34839411D01*
X66554819Y-34601315D02*
X66554819Y-33934649D01*
X66554819Y-33934649D02*
X67554819Y-34363220D01*
X23442438Y-35039411D02*
X23394819Y-35134649D01*
X23394819Y-35134649D02*
X23394819Y-35277506D01*
X23394819Y-35277506D02*
X23442438Y-35420363D01*
X23442438Y-35420363D02*
X23537676Y-35515601D01*
X23537676Y-35515601D02*
X23632914Y-35563220D01*
X23632914Y-35563220D02*
X23823390Y-35610839D01*
X23823390Y-35610839D02*
X23966247Y-35610839D01*
X23966247Y-35610839D02*
X24156723Y-35563220D01*
X24156723Y-35563220D02*
X24251961Y-35515601D01*
X24251961Y-35515601D02*
X24347200Y-35420363D01*
X24347200Y-35420363D02*
X24394819Y-35277506D01*
X24394819Y-35277506D02*
X24394819Y-35182268D01*
X24394819Y-35182268D02*
X24347200Y-35039411D01*
X24347200Y-35039411D02*
X24299580Y-34991792D01*
X24299580Y-34991792D02*
X23966247Y-34991792D01*
X23966247Y-34991792D02*
X23966247Y-35182268D01*
X24394819Y-34563220D02*
X23394819Y-34563220D01*
X23394819Y-34563220D02*
X24394819Y-33991792D01*
X24394819Y-33991792D02*
X23394819Y-33991792D01*
X24394819Y-33515601D02*
X23394819Y-33515601D01*
X23394819Y-33515601D02*
X23394819Y-33277506D01*
X23394819Y-33277506D02*
X23442438Y-33134649D01*
X23442438Y-33134649D02*
X23537676Y-33039411D01*
X23537676Y-33039411D02*
X23632914Y-32991792D01*
X23632914Y-32991792D02*
X23823390Y-32944173D01*
X23823390Y-32944173D02*
X23966247Y-32944173D01*
X23966247Y-32944173D02*
X24156723Y-32991792D01*
X24156723Y-32991792D02*
X24251961Y-33039411D01*
X24251961Y-33039411D02*
X24347200Y-33134649D01*
X24347200Y-33134649D02*
X24394819Y-33277506D01*
X24394819Y-33277506D02*
X24394819Y-33515601D01*
X71508152Y-25169523D02*
X71793866Y-24407619D01*
X71793866Y-24407619D02*
X72079580Y-25169523D01*
X71651009Y-23931428D02*
X71651009Y-23598095D01*
X72174819Y-23455238D02*
X72174819Y-23931428D01*
X72174819Y-23931428D02*
X71174819Y-23931428D01*
X71174819Y-23931428D02*
X71174819Y-23455238D01*
X71174819Y-22598095D02*
X71174819Y-22788571D01*
X71174819Y-22788571D02*
X71222438Y-22883809D01*
X71222438Y-22883809D02*
X71270057Y-22931428D01*
X71270057Y-22931428D02*
X71412914Y-23026666D01*
X71412914Y-23026666D02*
X71603390Y-23074285D01*
X71603390Y-23074285D02*
X71984342Y-23074285D01*
X71984342Y-23074285D02*
X72079580Y-23026666D01*
X72079580Y-23026666D02*
X72127200Y-22979047D01*
X72127200Y-22979047D02*
X72174819Y-22883809D01*
X72174819Y-22883809D02*
X72174819Y-22693333D01*
X72174819Y-22693333D02*
X72127200Y-22598095D01*
X72127200Y-22598095D02*
X72079580Y-22550476D01*
X72079580Y-22550476D02*
X71984342Y-22502857D01*
X71984342Y-22502857D02*
X71746247Y-22502857D01*
X71746247Y-22502857D02*
X71651009Y-22550476D01*
X71651009Y-22550476D02*
X71603390Y-22598095D01*
X71603390Y-22598095D02*
X71555771Y-22693333D01*
X71555771Y-22693333D02*
X71555771Y-22883809D01*
X71555771Y-22883809D02*
X71603390Y-22979047D01*
X71603390Y-22979047D02*
X71651009Y-23026666D01*
X71651009Y-23026666D02*
X71746247Y-23074285D01*
X41533333Y-35654819D02*
X41200000Y-35178628D01*
X40961905Y-35654819D02*
X40961905Y-34654819D01*
X40961905Y-34654819D02*
X41342857Y-34654819D01*
X41342857Y-34654819D02*
X41438095Y-34702438D01*
X41438095Y-34702438D02*
X41485714Y-34750057D01*
X41485714Y-34750057D02*
X41533333Y-34845295D01*
X41533333Y-34845295D02*
X41533333Y-34988152D01*
X41533333Y-34988152D02*
X41485714Y-35083390D01*
X41485714Y-35083390D02*
X41438095Y-35131009D01*
X41438095Y-35131009D02*
X41342857Y-35178628D01*
X41342857Y-35178628D02*
X40961905Y-35178628D01*
X41914286Y-35607200D02*
X42057143Y-35654819D01*
X42057143Y-35654819D02*
X42295238Y-35654819D01*
X42295238Y-35654819D02*
X42390476Y-35607200D01*
X42390476Y-35607200D02*
X42438095Y-35559580D01*
X42438095Y-35559580D02*
X42485714Y-35464342D01*
X42485714Y-35464342D02*
X42485714Y-35369104D01*
X42485714Y-35369104D02*
X42438095Y-35273866D01*
X42438095Y-35273866D02*
X42390476Y-35226247D01*
X42390476Y-35226247D02*
X42295238Y-35178628D01*
X42295238Y-35178628D02*
X42104762Y-35131009D01*
X42104762Y-35131009D02*
X42009524Y-35083390D01*
X42009524Y-35083390D02*
X41961905Y-35035771D01*
X41961905Y-35035771D02*
X41914286Y-34940533D01*
X41914286Y-34940533D02*
X41914286Y-34845295D01*
X41914286Y-34845295D02*
X41961905Y-34750057D01*
X41961905Y-34750057D02*
X42009524Y-34702438D01*
X42009524Y-34702438D02*
X42104762Y-34654819D01*
X42104762Y-34654819D02*
X42342857Y-34654819D01*
X42342857Y-34654819D02*
X42485714Y-34702438D01*
X45126009Y-36929523D02*
X45173628Y-36786666D01*
X45173628Y-36786666D02*
X45221247Y-36739047D01*
X45221247Y-36739047D02*
X45316485Y-36691428D01*
X45316485Y-36691428D02*
X45459342Y-36691428D01*
X45459342Y-36691428D02*
X45554580Y-36739047D01*
X45554580Y-36739047D02*
X45602200Y-36786666D01*
X45602200Y-36786666D02*
X45649819Y-36881904D01*
X45649819Y-36881904D02*
X45649819Y-37262856D01*
X45649819Y-37262856D02*
X44649819Y-37262856D01*
X44649819Y-37262856D02*
X44649819Y-36929523D01*
X44649819Y-36929523D02*
X44697438Y-36834285D01*
X44697438Y-36834285D02*
X44745057Y-36786666D01*
X44745057Y-36786666D02*
X44840295Y-36739047D01*
X44840295Y-36739047D02*
X44935533Y-36739047D01*
X44935533Y-36739047D02*
X45030771Y-36786666D01*
X45030771Y-36786666D02*
X45078390Y-36834285D01*
X45078390Y-36834285D02*
X45126009Y-36929523D01*
X45126009Y-36929523D02*
X45126009Y-37262856D01*
X44649819Y-36405713D02*
X44649819Y-35834285D01*
X45649819Y-36119999D02*
X44649819Y-36119999D01*
X54104819Y-21298094D02*
X53104819Y-21298094D01*
X53104819Y-21298094D02*
X53104819Y-21059999D01*
X53104819Y-21059999D02*
X53152438Y-20917142D01*
X53152438Y-20917142D02*
X53247676Y-20821904D01*
X53247676Y-20821904D02*
X53342914Y-20774285D01*
X53342914Y-20774285D02*
X53533390Y-20726666D01*
X53533390Y-20726666D02*
X53676247Y-20726666D01*
X53676247Y-20726666D02*
X53866723Y-20774285D01*
X53866723Y-20774285D02*
X53961961Y-20821904D01*
X53961961Y-20821904D02*
X54057200Y-20917142D01*
X54057200Y-20917142D02*
X54104819Y-21059999D01*
X54104819Y-21059999D02*
X54104819Y-21298094D01*
X53104819Y-19821904D02*
X53104819Y-20298094D01*
X53104819Y-20298094D02*
X53581009Y-20345713D01*
X53581009Y-20345713D02*
X53533390Y-20298094D01*
X53533390Y-20298094D02*
X53485771Y-20202856D01*
X53485771Y-20202856D02*
X53485771Y-19964761D01*
X53485771Y-19964761D02*
X53533390Y-19869523D01*
X53533390Y-19869523D02*
X53581009Y-19821904D01*
X53581009Y-19821904D02*
X53676247Y-19774285D01*
X53676247Y-19774285D02*
X53914342Y-19774285D01*
X53914342Y-19774285D02*
X54009580Y-19821904D01*
X54009580Y-19821904D02*
X54057200Y-19869523D01*
X54057200Y-19869523D02*
X54104819Y-19964761D01*
X54104819Y-19964761D02*
X54104819Y-20202856D01*
X54104819Y-20202856D02*
X54057200Y-20298094D01*
X54057200Y-20298094D02*
X54009580Y-20345713D01*
X28071429Y-34654819D02*
X28309524Y-35654819D01*
X28309524Y-35654819D02*
X28500000Y-34940533D01*
X28500000Y-34940533D02*
X28690476Y-35654819D01*
X28690476Y-35654819D02*
X28928572Y-34654819D01*
X29309524Y-35654819D02*
X29309524Y-34654819D01*
X29880952Y-35654819D02*
X29452381Y-35083390D01*
X29880952Y-34654819D02*
X29309524Y-35226247D01*
X56871009Y-35029887D02*
X56918628Y-34887030D01*
X56918628Y-34887030D02*
X56966247Y-34839411D01*
X56966247Y-34839411D02*
X57061485Y-34791792D01*
X57061485Y-34791792D02*
X57204342Y-34791792D01*
X57204342Y-34791792D02*
X57299580Y-34839411D01*
X57299580Y-34839411D02*
X57347200Y-34887030D01*
X57347200Y-34887030D02*
X57394819Y-34982268D01*
X57394819Y-34982268D02*
X57394819Y-35363220D01*
X57394819Y-35363220D02*
X56394819Y-35363220D01*
X56394819Y-35363220D02*
X56394819Y-35029887D01*
X56394819Y-35029887D02*
X56442438Y-34934649D01*
X56442438Y-34934649D02*
X56490057Y-34887030D01*
X56490057Y-34887030D02*
X56585295Y-34839411D01*
X56585295Y-34839411D02*
X56680533Y-34839411D01*
X56680533Y-34839411D02*
X56775771Y-34887030D01*
X56775771Y-34887030D02*
X56823390Y-34934649D01*
X56823390Y-34934649D02*
X56871009Y-35029887D01*
X56871009Y-35029887D02*
X56871009Y-35363220D01*
X56394819Y-34458458D02*
X56394819Y-33791792D01*
X56394819Y-33791792D02*
X57394819Y-34220363D01*
X42749819Y-36905714D02*
X43464104Y-36905714D01*
X43464104Y-36905714D02*
X43606961Y-36953333D01*
X43606961Y-36953333D02*
X43702200Y-37048571D01*
X43702200Y-37048571D02*
X43749819Y-37191428D01*
X43749819Y-37191428D02*
X43749819Y-37286666D01*
X43464104Y-36477142D02*
X43464104Y-36000952D01*
X43749819Y-36572380D02*
X42749819Y-36239047D01*
X42749819Y-36239047D02*
X43749819Y-35905714D01*
X49274819Y-27002744D02*
X49274819Y-26812268D01*
X49274819Y-26812268D02*
X49322438Y-26717030D01*
X49322438Y-26717030D02*
X49417676Y-26621792D01*
X49417676Y-26621792D02*
X49608152Y-26574173D01*
X49608152Y-26574173D02*
X49941485Y-26574173D01*
X49941485Y-26574173D02*
X50131961Y-26621792D01*
X50131961Y-26621792D02*
X50227200Y-26717030D01*
X50227200Y-26717030D02*
X50274819Y-26812268D01*
X50274819Y-26812268D02*
X50274819Y-27002744D01*
X50274819Y-27002744D02*
X50227200Y-27097982D01*
X50227200Y-27097982D02*
X50131961Y-27193220D01*
X50131961Y-27193220D02*
X49941485Y-27240839D01*
X49941485Y-27240839D02*
X49608152Y-27240839D01*
X49608152Y-27240839D02*
X49417676Y-27193220D01*
X49417676Y-27193220D02*
X49322438Y-27097982D01*
X49322438Y-27097982D02*
X49274819Y-27002744D01*
X50274819Y-26145601D02*
X49274819Y-26145601D01*
X49274819Y-26145601D02*
X50274819Y-25574173D01*
X50274819Y-25574173D02*
X49274819Y-25574173D01*
X42749819Y-19197142D02*
X43464104Y-19197142D01*
X43464104Y-19197142D02*
X43606961Y-19244761D01*
X43606961Y-19244761D02*
X43702200Y-19339999D01*
X43702200Y-19339999D02*
X43749819Y-19482856D01*
X43749819Y-19482856D02*
X43749819Y-19578094D01*
X43226009Y-18387618D02*
X43273628Y-18244761D01*
X43273628Y-18244761D02*
X43321247Y-18197142D01*
X43321247Y-18197142D02*
X43416485Y-18149523D01*
X43416485Y-18149523D02*
X43559342Y-18149523D01*
X43559342Y-18149523D02*
X43654580Y-18197142D01*
X43654580Y-18197142D02*
X43702200Y-18244761D01*
X43702200Y-18244761D02*
X43749819Y-18339999D01*
X43749819Y-18339999D02*
X43749819Y-18720951D01*
X43749819Y-18720951D02*
X42749819Y-18720951D01*
X42749819Y-18720951D02*
X42749819Y-18387618D01*
X42749819Y-18387618D02*
X42797438Y-18292380D01*
X42797438Y-18292380D02*
X42845057Y-18244761D01*
X42845057Y-18244761D02*
X42940295Y-18197142D01*
X42940295Y-18197142D02*
X43035533Y-18197142D01*
X43035533Y-18197142D02*
X43130771Y-18244761D01*
X43130771Y-18244761D02*
X43178390Y-18292380D01*
X43178390Y-18292380D02*
X43226009Y-18387618D01*
X43226009Y-18387618D02*
X43226009Y-18720951D01*
X33270476Y-35654819D02*
X33270476Y-34654819D01*
X33270476Y-34654819D02*
X33603809Y-35369104D01*
X33603809Y-35369104D02*
X33937142Y-34654819D01*
X33937142Y-34654819D02*
X33937142Y-35654819D01*
X34365714Y-35607200D02*
X34508571Y-35654819D01*
X34508571Y-35654819D02*
X34746666Y-35654819D01*
X34746666Y-35654819D02*
X34841904Y-35607200D01*
X34841904Y-35607200D02*
X34889523Y-35559580D01*
X34889523Y-35559580D02*
X34937142Y-35464342D01*
X34937142Y-35464342D02*
X34937142Y-35369104D01*
X34937142Y-35369104D02*
X34889523Y-35273866D01*
X34889523Y-35273866D02*
X34841904Y-35226247D01*
X34841904Y-35226247D02*
X34746666Y-35178628D01*
X34746666Y-35178628D02*
X34556190Y-35131009D01*
X34556190Y-35131009D02*
X34460952Y-35083390D01*
X34460952Y-35083390D02*
X34413333Y-35035771D01*
X34413333Y-35035771D02*
X34365714Y-34940533D01*
X34365714Y-34940533D02*
X34365714Y-34845295D01*
X34365714Y-34845295D02*
X34413333Y-34750057D01*
X34413333Y-34750057D02*
X34460952Y-34702438D01*
X34460952Y-34702438D02*
X34556190Y-34654819D01*
X34556190Y-34654819D02*
X34794285Y-34654819D01*
X34794285Y-34654819D02*
X34937142Y-34702438D01*
X62474819Y-35315601D02*
X62474819Y-35125125D01*
X62474819Y-35125125D02*
X62427200Y-35029887D01*
X62427200Y-35029887D02*
X62379580Y-34982268D01*
X62379580Y-34982268D02*
X62236723Y-34887030D01*
X62236723Y-34887030D02*
X62046247Y-34839411D01*
X62046247Y-34839411D02*
X61665295Y-34839411D01*
X61665295Y-34839411D02*
X61570057Y-34887030D01*
X61570057Y-34887030D02*
X61522438Y-34934649D01*
X61522438Y-34934649D02*
X61474819Y-35029887D01*
X61474819Y-35029887D02*
X61474819Y-35220363D01*
X61474819Y-35220363D02*
X61522438Y-35315601D01*
X61522438Y-35315601D02*
X61570057Y-35363220D01*
X61570057Y-35363220D02*
X61665295Y-35410839D01*
X61665295Y-35410839D02*
X61903390Y-35410839D01*
X61903390Y-35410839D02*
X61998628Y-35363220D01*
X61998628Y-35363220D02*
X62046247Y-35315601D01*
X62046247Y-35315601D02*
X62093866Y-35220363D01*
X62093866Y-35220363D02*
X62093866Y-35029887D01*
X62093866Y-35029887D02*
X62046247Y-34934649D01*
X62046247Y-34934649D02*
X61998628Y-34887030D01*
X61998628Y-34887030D02*
X61903390Y-34839411D01*
X42445713Y-19785180D02*
X42445713Y-20785180D01*
X42445713Y-20785180D02*
X42207618Y-20785180D01*
X42207618Y-20785180D02*
X42064761Y-20737561D01*
X42064761Y-20737561D02*
X41969523Y-20642323D01*
X41969523Y-20642323D02*
X41921904Y-20547085D01*
X41921904Y-20547085D02*
X41874285Y-20356609D01*
X41874285Y-20356609D02*
X41874285Y-20213752D01*
X41874285Y-20213752D02*
X41921904Y-20023276D01*
X41921904Y-20023276D02*
X41969523Y-19928038D01*
X41969523Y-19928038D02*
X42064761Y-19832800D01*
X42064761Y-19832800D02*
X42207618Y-19785180D01*
X42207618Y-19785180D02*
X42445713Y-19785180D01*
X41255237Y-20785180D02*
X41064761Y-20785180D01*
X41064761Y-20785180D02*
X40969523Y-20737561D01*
X40969523Y-20737561D02*
X40874285Y-20642323D01*
X40874285Y-20642323D02*
X40826666Y-20451847D01*
X40826666Y-20451847D02*
X40826666Y-20118514D01*
X40826666Y-20118514D02*
X40874285Y-19928038D01*
X40874285Y-19928038D02*
X40969523Y-19832800D01*
X40969523Y-19832800D02*
X41064761Y-19785180D01*
X41064761Y-19785180D02*
X41255237Y-19785180D01*
X41255237Y-19785180D02*
X41350475Y-19832800D01*
X41350475Y-19832800D02*
X41445713Y-19928038D01*
X41445713Y-19928038D02*
X41493332Y-20118514D01*
X41493332Y-20118514D02*
X41493332Y-20451847D01*
X41493332Y-20451847D02*
X41445713Y-20642323D01*
X41445713Y-20642323D02*
X41350475Y-20737561D01*
X41350475Y-20737561D02*
X41255237Y-20785180D01*
X72349104Y-35410839D02*
X72349104Y-34934649D01*
X72634819Y-35506077D02*
X71634819Y-35172744D01*
X71634819Y-35172744D02*
X72634819Y-34839411D01*
X71634819Y-34029887D02*
X71634819Y-34506077D01*
X71634819Y-34506077D02*
X72111009Y-34553696D01*
X72111009Y-34553696D02*
X72063390Y-34506077D01*
X72063390Y-34506077D02*
X72015771Y-34410839D01*
X72015771Y-34410839D02*
X72015771Y-34172744D01*
X72015771Y-34172744D02*
X72063390Y-34077506D01*
X72063390Y-34077506D02*
X72111009Y-34029887D01*
X72111009Y-34029887D02*
X72206247Y-33982268D01*
X72206247Y-33982268D02*
X72444342Y-33982268D01*
X72444342Y-33982268D02*
X72539580Y-34029887D01*
X72539580Y-34029887D02*
X72587200Y-34077506D01*
X72587200Y-34077506D02*
X72634819Y-34172744D01*
X72634819Y-34172744D02*
X72634819Y-34410839D01*
X72634819Y-34410839D02*
X72587200Y-34506077D01*
X72587200Y-34506077D02*
X72539580Y-34553696D01*
X76145601Y-31042438D02*
X76050363Y-30994819D01*
X76050363Y-30994819D02*
X75907506Y-30994819D01*
X75907506Y-30994819D02*
X75764649Y-31042438D01*
X75764649Y-31042438D02*
X75669411Y-31137676D01*
X75669411Y-31137676D02*
X75621792Y-31232914D01*
X75621792Y-31232914D02*
X75574173Y-31423390D01*
X75574173Y-31423390D02*
X75574173Y-31566247D01*
X75574173Y-31566247D02*
X75621792Y-31756723D01*
X75621792Y-31756723D02*
X75669411Y-31851961D01*
X75669411Y-31851961D02*
X75764649Y-31947200D01*
X75764649Y-31947200D02*
X75907506Y-31994819D01*
X75907506Y-31994819D02*
X76002744Y-31994819D01*
X76002744Y-31994819D02*
X76145601Y-31947200D01*
X76145601Y-31947200D02*
X76193220Y-31899580D01*
X76193220Y-31899580D02*
X76193220Y-31566247D01*
X76193220Y-31566247D02*
X76002744Y-31566247D01*
X76621792Y-31994819D02*
X76621792Y-30994819D01*
X76621792Y-30994819D02*
X77193220Y-31994819D01*
X77193220Y-31994819D02*
X77193220Y-30994819D01*
X77669411Y-31994819D02*
X77669411Y-30994819D01*
X77669411Y-30994819D02*
X77907506Y-30994819D01*
X77907506Y-30994819D02*
X78050363Y-31042438D01*
X78050363Y-31042438D02*
X78145601Y-31137676D01*
X78145601Y-31137676D02*
X78193220Y-31232914D01*
X78193220Y-31232914D02*
X78240839Y-31423390D01*
X78240839Y-31423390D02*
X78240839Y-31566247D01*
X78240839Y-31566247D02*
X78193220Y-31756723D01*
X78193220Y-31756723D02*
X78145601Y-31851961D01*
X78145601Y-31851961D02*
X78050363Y-31947200D01*
X78050363Y-31947200D02*
X77907506Y-31994819D01*
X77907506Y-31994819D02*
X77669411Y-31994819D01*
X79731009Y-21086779D02*
X79731009Y-21420112D01*
X80254819Y-21420112D02*
X79254819Y-21420112D01*
X79254819Y-21420112D02*
X79254819Y-20943922D01*
X79350057Y-20610588D02*
X79302438Y-20562969D01*
X79302438Y-20562969D02*
X79254819Y-20467731D01*
X79254819Y-20467731D02*
X79254819Y-20229636D01*
X79254819Y-20229636D02*
X79302438Y-20134398D01*
X79302438Y-20134398D02*
X79350057Y-20086779D01*
X79350057Y-20086779D02*
X79445295Y-20039160D01*
X79445295Y-20039160D02*
X79540533Y-20039160D01*
X79540533Y-20039160D02*
X79683390Y-20086779D01*
X79683390Y-20086779D02*
X80254819Y-20658207D01*
X80254819Y-20658207D02*
X80254819Y-20039160D01*
X49846009Y-29219160D02*
X49893628Y-29076303D01*
X49893628Y-29076303D02*
X49941247Y-29028684D01*
X49941247Y-29028684D02*
X50036485Y-28981065D01*
X50036485Y-28981065D02*
X50179342Y-28981065D01*
X50179342Y-28981065D02*
X50274580Y-29028684D01*
X50274580Y-29028684D02*
X50322200Y-29076303D01*
X50322200Y-29076303D02*
X50369819Y-29171541D01*
X50369819Y-29171541D02*
X50369819Y-29552493D01*
X50369819Y-29552493D02*
X49369819Y-29552493D01*
X49369819Y-29552493D02*
X49369819Y-29219160D01*
X49369819Y-29219160D02*
X49417438Y-29123922D01*
X49417438Y-29123922D02*
X49465057Y-29076303D01*
X49465057Y-29076303D02*
X49560295Y-29028684D01*
X49560295Y-29028684D02*
X49655533Y-29028684D01*
X49655533Y-29028684D02*
X49750771Y-29076303D01*
X49750771Y-29076303D02*
X49798390Y-29123922D01*
X49798390Y-29123922D02*
X49846009Y-29219160D01*
X49846009Y-29219160D02*
X49846009Y-29552493D01*
X49369819Y-28695350D02*
X49369819Y-28123922D01*
X50369819Y-28409636D02*
X49369819Y-28409636D01*
X82271009Y-21086779D02*
X82271009Y-21420112D01*
X82794819Y-21420112D02*
X81794819Y-21420112D01*
X81794819Y-21420112D02*
X81794819Y-20943922D01*
X82794819Y-20039160D02*
X82794819Y-20610588D01*
X82794819Y-20324874D02*
X81794819Y-20324874D01*
X81794819Y-20324874D02*
X81937676Y-20420112D01*
X81937676Y-20420112D02*
X82032914Y-20515350D01*
X82032914Y-20515350D02*
X82080533Y-20610588D01*
X73717030Y-29407200D02*
X73859887Y-29454819D01*
X73859887Y-29454819D02*
X74097982Y-29454819D01*
X74097982Y-29454819D02*
X74193220Y-29407200D01*
X74193220Y-29407200D02*
X74240839Y-29359580D01*
X74240839Y-29359580D02*
X74288458Y-29264342D01*
X74288458Y-29264342D02*
X74288458Y-29169104D01*
X74288458Y-29169104D02*
X74240839Y-29073866D01*
X74240839Y-29073866D02*
X74193220Y-29026247D01*
X74193220Y-29026247D02*
X74097982Y-28978628D01*
X74097982Y-28978628D02*
X73907506Y-28931009D01*
X73907506Y-28931009D02*
X73812268Y-28883390D01*
X73812268Y-28883390D02*
X73764649Y-28835771D01*
X73764649Y-28835771D02*
X73717030Y-28740533D01*
X73717030Y-28740533D02*
X73717030Y-28645295D01*
X73717030Y-28645295D02*
X73764649Y-28550057D01*
X73764649Y-28550057D02*
X73812268Y-28502438D01*
X73812268Y-28502438D02*
X73907506Y-28454819D01*
X73907506Y-28454819D02*
X74145601Y-28454819D01*
X74145601Y-28454819D02*
X74288458Y-28502438D01*
X74621792Y-28454819D02*
X74859887Y-29454819D01*
X74859887Y-29454819D02*
X75050363Y-28740533D01*
X75050363Y-28740533D02*
X75240839Y-29454819D01*
X75240839Y-29454819D02*
X75478935Y-28454819D01*
X76431315Y-29359580D02*
X76383696Y-29407200D01*
X76383696Y-29407200D02*
X76240839Y-29454819D01*
X76240839Y-29454819D02*
X76145601Y-29454819D01*
X76145601Y-29454819D02*
X76002744Y-29407200D01*
X76002744Y-29407200D02*
X75907506Y-29311961D01*
X75907506Y-29311961D02*
X75859887Y-29216723D01*
X75859887Y-29216723D02*
X75812268Y-29026247D01*
X75812268Y-29026247D02*
X75812268Y-28883390D01*
X75812268Y-28883390D02*
X75859887Y-28692914D01*
X75859887Y-28692914D02*
X75907506Y-28597676D01*
X75907506Y-28597676D02*
X76002744Y-28502438D01*
X76002744Y-28502438D02*
X76145601Y-28454819D01*
X76145601Y-28454819D02*
X76240839Y-28454819D01*
X76240839Y-28454819D02*
X76383696Y-28502438D01*
X76383696Y-28502438D02*
X76431315Y-28550057D01*
X77336077Y-29454819D02*
X76859887Y-29454819D01*
X76859887Y-29454819D02*
X76859887Y-28454819D01*
X77669411Y-29454819D02*
X77669411Y-28454819D01*
X78240839Y-29454819D02*
X77812268Y-28883390D01*
X78240839Y-28454819D02*
X77669411Y-29026247D01*
X40029523Y-19825180D02*
X40029523Y-20825180D01*
X40029523Y-20825180D02*
X39696190Y-20110895D01*
X39696190Y-20110895D02*
X39362857Y-20825180D01*
X39362857Y-20825180D02*
X39362857Y-19825180D01*
X38934285Y-19872800D02*
X38791428Y-19825180D01*
X38791428Y-19825180D02*
X38553333Y-19825180D01*
X38553333Y-19825180D02*
X38458095Y-19872800D01*
X38458095Y-19872800D02*
X38410476Y-19920419D01*
X38410476Y-19920419D02*
X38362857Y-20015657D01*
X38362857Y-20015657D02*
X38362857Y-20110895D01*
X38362857Y-20110895D02*
X38410476Y-20206133D01*
X38410476Y-20206133D02*
X38458095Y-20253752D01*
X38458095Y-20253752D02*
X38553333Y-20301371D01*
X38553333Y-20301371D02*
X38743809Y-20348990D01*
X38743809Y-20348990D02*
X38839047Y-20396609D01*
X38839047Y-20396609D02*
X38886666Y-20444228D01*
X38886666Y-20444228D02*
X38934285Y-20539466D01*
X38934285Y-20539466D02*
X38934285Y-20634704D01*
X38934285Y-20634704D02*
X38886666Y-20729942D01*
X38886666Y-20729942D02*
X38839047Y-20777561D01*
X38839047Y-20777561D02*
X38743809Y-20825180D01*
X38743809Y-20825180D02*
X38505714Y-20825180D01*
X38505714Y-20825180D02*
X38362857Y-20777561D01*
X79969104Y-35410839D02*
X79969104Y-34934649D01*
X80254819Y-35506077D02*
X79254819Y-35172744D01*
X79254819Y-35172744D02*
X80254819Y-34839411D01*
X79350057Y-34553696D02*
X79302438Y-34506077D01*
X79302438Y-34506077D02*
X79254819Y-34410839D01*
X79254819Y-34410839D02*
X79254819Y-34172744D01*
X79254819Y-34172744D02*
X79302438Y-34077506D01*
X79302438Y-34077506D02*
X79350057Y-34029887D01*
X79350057Y-34029887D02*
X79445295Y-33982268D01*
X79445295Y-33982268D02*
X79540533Y-33982268D01*
X79540533Y-33982268D02*
X79683390Y-34029887D01*
X79683390Y-34029887D02*
X80254819Y-34601315D01*
X80254819Y-34601315D02*
X80254819Y-33982268D01*
X36800476Y-19950419D02*
X36848095Y-19902800D01*
X36848095Y-19902800D02*
X36990952Y-19855180D01*
X36990952Y-19855180D02*
X37086190Y-19855180D01*
X37086190Y-19855180D02*
X37229047Y-19902800D01*
X37229047Y-19902800D02*
X37324285Y-19998038D01*
X37324285Y-19998038D02*
X37371904Y-20093276D01*
X37371904Y-20093276D02*
X37419523Y-20283752D01*
X37419523Y-20283752D02*
X37419523Y-20426609D01*
X37419523Y-20426609D02*
X37371904Y-20617085D01*
X37371904Y-20617085D02*
X37324285Y-20712323D01*
X37324285Y-20712323D02*
X37229047Y-20807561D01*
X37229047Y-20807561D02*
X37086190Y-20855180D01*
X37086190Y-20855180D02*
X36990952Y-20855180D01*
X36990952Y-20855180D02*
X36848095Y-20807561D01*
X36848095Y-20807561D02*
X36800476Y-20759942D01*
X36371904Y-19855180D02*
X36371904Y-20855180D01*
X35800476Y-19855180D02*
X36229047Y-20426609D01*
X35800476Y-20855180D02*
X36371904Y-20283752D01*
X77429104Y-35410839D02*
X77429104Y-34934649D01*
X77714819Y-35506077D02*
X76714819Y-35172744D01*
X76714819Y-35172744D02*
X77714819Y-34839411D01*
X76714819Y-34601315D02*
X76714819Y-33982268D01*
X76714819Y-33982268D02*
X77095771Y-34315601D01*
X77095771Y-34315601D02*
X77095771Y-34172744D01*
X77095771Y-34172744D02*
X77143390Y-34077506D01*
X77143390Y-34077506D02*
X77191009Y-34029887D01*
X77191009Y-34029887D02*
X77286247Y-33982268D01*
X77286247Y-33982268D02*
X77524342Y-33982268D01*
X77524342Y-33982268D02*
X77619580Y-34029887D01*
X77619580Y-34029887D02*
X77667200Y-34077506D01*
X77667200Y-34077506D02*
X77714819Y-34172744D01*
X77714819Y-34172744D02*
X77714819Y-34458458D01*
X77714819Y-34458458D02*
X77667200Y-34553696D01*
X77667200Y-34553696D02*
X77619580Y-34601315D01*
X18312438Y-35029411D02*
X18264819Y-35124649D01*
X18264819Y-35124649D02*
X18264819Y-35267506D01*
X18264819Y-35267506D02*
X18312438Y-35410363D01*
X18312438Y-35410363D02*
X18407676Y-35505601D01*
X18407676Y-35505601D02*
X18502914Y-35553220D01*
X18502914Y-35553220D02*
X18693390Y-35600839D01*
X18693390Y-35600839D02*
X18836247Y-35600839D01*
X18836247Y-35600839D02*
X19026723Y-35553220D01*
X19026723Y-35553220D02*
X19121961Y-35505601D01*
X19121961Y-35505601D02*
X19217200Y-35410363D01*
X19217200Y-35410363D02*
X19264819Y-35267506D01*
X19264819Y-35267506D02*
X19264819Y-35172268D01*
X19264819Y-35172268D02*
X19217200Y-35029411D01*
X19217200Y-35029411D02*
X19169580Y-34981792D01*
X19169580Y-34981792D02*
X18836247Y-34981792D01*
X18836247Y-34981792D02*
X18836247Y-35172268D01*
X19264819Y-34553220D02*
X18264819Y-34553220D01*
X18264819Y-34553220D02*
X19264819Y-33981792D01*
X19264819Y-33981792D02*
X18264819Y-33981792D01*
X19264819Y-33505601D02*
X18264819Y-33505601D01*
X18264819Y-33505601D02*
X18264819Y-33267506D01*
X18264819Y-33267506D02*
X18312438Y-33124649D01*
X18312438Y-33124649D02*
X18407676Y-33029411D01*
X18407676Y-33029411D02*
X18502914Y-32981792D01*
X18502914Y-32981792D02*
X18693390Y-32934173D01*
X18693390Y-32934173D02*
X18836247Y-32934173D01*
X18836247Y-32934173D02*
X19026723Y-32981792D01*
X19026723Y-32981792D02*
X19121961Y-33029411D01*
X19121961Y-33029411D02*
X19217200Y-33124649D01*
X19217200Y-33124649D02*
X19264819Y-33267506D01*
X19264819Y-33267506D02*
X19264819Y-33505601D01*
X51654819Y-32953446D02*
X51178628Y-33286779D01*
X51654819Y-33524874D02*
X50654819Y-33524874D01*
X50654819Y-33524874D02*
X50654819Y-33143922D01*
X50654819Y-33143922D02*
X50702438Y-33048684D01*
X50702438Y-33048684D02*
X50750057Y-33001065D01*
X50750057Y-33001065D02*
X50845295Y-32953446D01*
X50845295Y-32953446D02*
X50988152Y-32953446D01*
X50988152Y-32953446D02*
X51083390Y-33001065D01*
X51083390Y-33001065D02*
X51131009Y-33048684D01*
X51131009Y-33048684D02*
X51178628Y-33143922D01*
X51178628Y-33143922D02*
X51178628Y-33524874D01*
X51607200Y-32572493D02*
X51654819Y-32429636D01*
X51654819Y-32429636D02*
X51654819Y-32191541D01*
X51654819Y-32191541D02*
X51607200Y-32096303D01*
X51607200Y-32096303D02*
X51559580Y-32048684D01*
X51559580Y-32048684D02*
X51464342Y-32001065D01*
X51464342Y-32001065D02*
X51369104Y-32001065D01*
X51369104Y-32001065D02*
X51273866Y-32048684D01*
X51273866Y-32048684D02*
X51226247Y-32096303D01*
X51226247Y-32096303D02*
X51178628Y-32191541D01*
X51178628Y-32191541D02*
X51131009Y-32382017D01*
X51131009Y-32382017D02*
X51083390Y-32477255D01*
X51083390Y-32477255D02*
X51035771Y-32524874D01*
X51035771Y-32524874D02*
X50940533Y-32572493D01*
X50940533Y-32572493D02*
X50845295Y-32572493D01*
X50845295Y-32572493D02*
X50750057Y-32524874D01*
X50750057Y-32524874D02*
X50702438Y-32477255D01*
X50702438Y-32477255D02*
X50654819Y-32382017D01*
X50654819Y-32382017D02*
X50654819Y-32143922D01*
X50654819Y-32143922D02*
X50702438Y-32001065D01*
X50654819Y-31715350D02*
X50654819Y-31143922D01*
X51654819Y-31429636D02*
X50654819Y-31429636D01*
X26814819Y-19789411D02*
X26814819Y-20360839D01*
X26814819Y-20075125D02*
X25814819Y-20075125D01*
X25814819Y-20075125D02*
X25957676Y-20170363D01*
X25957676Y-20170363D02*
X26052914Y-20265601D01*
X26052914Y-20265601D02*
X26100533Y-20360839D01*
X60901009Y-20890475D02*
X60901009Y-20557142D01*
X61424819Y-20414285D02*
X61424819Y-20890475D01*
X61424819Y-20890475D02*
X60424819Y-20890475D01*
X60424819Y-20890475D02*
X60424819Y-20414285D01*
X60424819Y-19795237D02*
X60424819Y-19699999D01*
X60424819Y-19699999D02*
X60472438Y-19604761D01*
X60472438Y-19604761D02*
X60520057Y-19557142D01*
X60520057Y-19557142D02*
X60615295Y-19509523D01*
X60615295Y-19509523D02*
X60805771Y-19461904D01*
X60805771Y-19461904D02*
X61043866Y-19461904D01*
X61043866Y-19461904D02*
X61234342Y-19509523D01*
X61234342Y-19509523D02*
X61329580Y-19557142D01*
X61329580Y-19557142D02*
X61377200Y-19604761D01*
X61377200Y-19604761D02*
X61424819Y-19699999D01*
X61424819Y-19699999D02*
X61424819Y-19795237D01*
X61424819Y-19795237D02*
X61377200Y-19890475D01*
X61377200Y-19890475D02*
X61329580Y-19938094D01*
X61329580Y-19938094D02*
X61234342Y-19985713D01*
X61234342Y-19985713D02*
X61043866Y-20033332D01*
X61043866Y-20033332D02*
X60805771Y-20033332D01*
X60805771Y-20033332D02*
X60615295Y-19985713D01*
X60615295Y-19985713D02*
X60520057Y-19938094D01*
X60520057Y-19938094D02*
X60472438Y-19890475D01*
X60472438Y-19890475D02*
X60424819Y-19795237D01*
X24474819Y-22503220D02*
X23474819Y-22503220D01*
X23474819Y-22503220D02*
X24189104Y-22169887D01*
X24189104Y-22169887D02*
X23474819Y-21836554D01*
X23474819Y-21836554D02*
X24474819Y-21836554D01*
X24379580Y-21360363D02*
X24427200Y-21312744D01*
X24427200Y-21312744D02*
X24474819Y-21360363D01*
X24474819Y-21360363D02*
X24427200Y-21407982D01*
X24427200Y-21407982D02*
X24379580Y-21360363D01*
X24379580Y-21360363D02*
X24474819Y-21360363D01*
X24379580Y-20884173D02*
X24427200Y-20836554D01*
X24427200Y-20836554D02*
X24474819Y-20884173D01*
X24474819Y-20884173D02*
X24427200Y-20931792D01*
X24427200Y-20931792D02*
X24379580Y-20884173D01*
X24379580Y-20884173D02*
X24474819Y-20884173D01*
X23474819Y-20217507D02*
X23474819Y-20122269D01*
X23474819Y-20122269D02*
X23522438Y-20027031D01*
X23522438Y-20027031D02*
X23570057Y-19979412D01*
X23570057Y-19979412D02*
X23665295Y-19931793D01*
X23665295Y-19931793D02*
X23855771Y-19884174D01*
X23855771Y-19884174D02*
X24093866Y-19884174D01*
X24093866Y-19884174D02*
X24284342Y-19931793D01*
X24284342Y-19931793D02*
X24379580Y-19979412D01*
X24379580Y-19979412D02*
X24427200Y-20027031D01*
X24427200Y-20027031D02*
X24474819Y-20122269D01*
X24474819Y-20122269D02*
X24474819Y-20217507D01*
X24474819Y-20217507D02*
X24427200Y-20312745D01*
X24427200Y-20312745D02*
X24379580Y-20360364D01*
X24379580Y-20360364D02*
X24284342Y-20407983D01*
X24284342Y-20407983D02*
X24093866Y-20455602D01*
X24093866Y-20455602D02*
X23855771Y-20455602D01*
X23855771Y-20455602D02*
X23665295Y-20407983D01*
X23665295Y-20407983D02*
X23570057Y-20360364D01*
X23570057Y-20360364D02*
X23522438Y-20312745D01*
X23522438Y-20312745D02*
X23474819Y-20217507D01*
X74002745Y-26867200D02*
X74145602Y-26914819D01*
X74145602Y-26914819D02*
X74383697Y-26914819D01*
X74383697Y-26914819D02*
X74478935Y-26867200D01*
X74478935Y-26867200D02*
X74526554Y-26819580D01*
X74526554Y-26819580D02*
X74574173Y-26724342D01*
X74574173Y-26724342D02*
X74574173Y-26629104D01*
X74574173Y-26629104D02*
X74526554Y-26533866D01*
X74526554Y-26533866D02*
X74478935Y-26486247D01*
X74478935Y-26486247D02*
X74383697Y-26438628D01*
X74383697Y-26438628D02*
X74193221Y-26391009D01*
X74193221Y-26391009D02*
X74097983Y-26343390D01*
X74097983Y-26343390D02*
X74050364Y-26295771D01*
X74050364Y-26295771D02*
X74002745Y-26200533D01*
X74002745Y-26200533D02*
X74002745Y-26105295D01*
X74002745Y-26105295D02*
X74050364Y-26010057D01*
X74050364Y-26010057D02*
X74097983Y-25962438D01*
X74097983Y-25962438D02*
X74193221Y-25914819D01*
X74193221Y-25914819D02*
X74431316Y-25914819D01*
X74431316Y-25914819D02*
X74574173Y-25962438D01*
X74907507Y-25914819D02*
X75145602Y-26914819D01*
X75145602Y-26914819D02*
X75336078Y-26200533D01*
X75336078Y-26200533D02*
X75526554Y-26914819D01*
X75526554Y-26914819D02*
X75764650Y-25914819D01*
X76145602Y-26914819D02*
X76145602Y-25914819D01*
X76145602Y-25914819D02*
X76383697Y-25914819D01*
X76383697Y-25914819D02*
X76526554Y-25962438D01*
X76526554Y-25962438D02*
X76621792Y-26057676D01*
X76621792Y-26057676D02*
X76669411Y-26152914D01*
X76669411Y-26152914D02*
X76717030Y-26343390D01*
X76717030Y-26343390D02*
X76717030Y-26486247D01*
X76717030Y-26486247D02*
X76669411Y-26676723D01*
X76669411Y-26676723D02*
X76621792Y-26771961D01*
X76621792Y-26771961D02*
X76526554Y-26867200D01*
X76526554Y-26867200D02*
X76383697Y-26914819D01*
X76383697Y-26914819D02*
X76145602Y-26914819D01*
X77145602Y-26914819D02*
X77145602Y-25914819D01*
X77812268Y-25914819D02*
X78002744Y-25914819D01*
X78002744Y-25914819D02*
X78097982Y-25962438D01*
X78097982Y-25962438D02*
X78193220Y-26057676D01*
X78193220Y-26057676D02*
X78240839Y-26248152D01*
X78240839Y-26248152D02*
X78240839Y-26581485D01*
X78240839Y-26581485D02*
X78193220Y-26771961D01*
X78193220Y-26771961D02*
X78097982Y-26867200D01*
X78097982Y-26867200D02*
X78002744Y-26914819D01*
X78002744Y-26914819D02*
X77812268Y-26914819D01*
X77812268Y-26914819D02*
X77717030Y-26867200D01*
X77717030Y-26867200D02*
X77621792Y-26771961D01*
X77621792Y-26771961D02*
X77574173Y-26581485D01*
X77574173Y-26581485D02*
X77574173Y-26248152D01*
X77574173Y-26248152D02*
X77621792Y-26057676D01*
X77621792Y-26057676D02*
X77717030Y-25962438D01*
X77717030Y-25962438D02*
X77812268Y-25914819D01*
X31706666Y-19805180D02*
X32039999Y-20281371D01*
X32278094Y-19805180D02*
X32278094Y-20805180D01*
X32278094Y-20805180D02*
X31897142Y-20805180D01*
X31897142Y-20805180D02*
X31801904Y-20757561D01*
X31801904Y-20757561D02*
X31754285Y-20709942D01*
X31754285Y-20709942D02*
X31706666Y-20614704D01*
X31706666Y-20614704D02*
X31706666Y-20471847D01*
X31706666Y-20471847D02*
X31754285Y-20376609D01*
X31754285Y-20376609D02*
X31801904Y-20328990D01*
X31801904Y-20328990D02*
X31897142Y-20281371D01*
X31897142Y-20281371D02*
X32278094Y-20281371D01*
X31325713Y-19852800D02*
X31182856Y-19805180D01*
X31182856Y-19805180D02*
X30944761Y-19805180D01*
X30944761Y-19805180D02*
X30849523Y-19852800D01*
X30849523Y-19852800D02*
X30801904Y-19900419D01*
X30801904Y-19900419D02*
X30754285Y-19995657D01*
X30754285Y-19995657D02*
X30754285Y-20090895D01*
X30754285Y-20090895D02*
X30801904Y-20186133D01*
X30801904Y-20186133D02*
X30849523Y-20233752D01*
X30849523Y-20233752D02*
X30944761Y-20281371D01*
X30944761Y-20281371D02*
X31135237Y-20328990D01*
X31135237Y-20328990D02*
X31230475Y-20376609D01*
X31230475Y-20376609D02*
X31278094Y-20424228D01*
X31278094Y-20424228D02*
X31325713Y-20519466D01*
X31325713Y-20519466D02*
X31325713Y-20614704D01*
X31325713Y-20614704D02*
X31278094Y-20709942D01*
X31278094Y-20709942D02*
X31230475Y-20757561D01*
X31230475Y-20757561D02*
X31135237Y-20805180D01*
X31135237Y-20805180D02*
X30897142Y-20805180D01*
X30897142Y-20805180D02*
X30754285Y-20757561D01*
X73338152Y-25169523D02*
X73623866Y-24407619D01*
X73623866Y-24407619D02*
X73909580Y-25169523D01*
X73481009Y-23931428D02*
X73481009Y-23598095D01*
X74004819Y-23455238D02*
X74004819Y-23931428D01*
X74004819Y-23931428D02*
X73004819Y-23931428D01*
X73004819Y-23931428D02*
X73004819Y-23455238D01*
X73004819Y-23121904D02*
X73004819Y-22455238D01*
X73004819Y-22455238D02*
X74004819Y-22883809D01*
X84811009Y-21086779D02*
X84811009Y-21420112D01*
X85334819Y-21420112D02*
X84334819Y-21420112D01*
X84334819Y-21420112D02*
X84334819Y-20943922D01*
X84334819Y-20372493D02*
X84334819Y-20277255D01*
X84334819Y-20277255D02*
X84382438Y-20182017D01*
X84382438Y-20182017D02*
X84430057Y-20134398D01*
X84430057Y-20134398D02*
X84525295Y-20086779D01*
X84525295Y-20086779D02*
X84715771Y-20039160D01*
X84715771Y-20039160D02*
X84953866Y-20039160D01*
X84953866Y-20039160D02*
X85144342Y-20086779D01*
X85144342Y-20086779D02*
X85239580Y-20134398D01*
X85239580Y-20134398D02*
X85287200Y-20182017D01*
X85287200Y-20182017D02*
X85334819Y-20277255D01*
X85334819Y-20277255D02*
X85334819Y-20372493D01*
X85334819Y-20372493D02*
X85287200Y-20467731D01*
X85287200Y-20467731D02*
X85239580Y-20515350D01*
X85239580Y-20515350D02*
X85144342Y-20562969D01*
X85144342Y-20562969D02*
X84953866Y-20610588D01*
X84953866Y-20610588D02*
X84715771Y-20610588D01*
X84715771Y-20610588D02*
X84525295Y-20562969D01*
X84525295Y-20562969D02*
X84430057Y-20515350D01*
X84430057Y-20515350D02*
X84382438Y-20467731D01*
X84382438Y-20467731D02*
X84334819Y-20372493D01*
X77191009Y-21086779D02*
X77191009Y-21420112D01*
X77714819Y-21420112D02*
X76714819Y-21420112D01*
X76714819Y-21420112D02*
X76714819Y-20943922D01*
X76714819Y-20658207D02*
X76714819Y-20039160D01*
X76714819Y-20039160D02*
X77095771Y-20372493D01*
X77095771Y-20372493D02*
X77095771Y-20229636D01*
X77095771Y-20229636D02*
X77143390Y-20134398D01*
X77143390Y-20134398D02*
X77191009Y-20086779D01*
X77191009Y-20086779D02*
X77286247Y-20039160D01*
X77286247Y-20039160D02*
X77524342Y-20039160D01*
X77524342Y-20039160D02*
X77619580Y-20086779D01*
X77619580Y-20086779D02*
X77667200Y-20134398D01*
X77667200Y-20134398D02*
X77714819Y-20229636D01*
X77714819Y-20229636D02*
X77714819Y-20515350D01*
X77714819Y-20515350D02*
X77667200Y-20610588D01*
X77667200Y-20610588D02*
X77619580Y-20658207D01*
X28520057Y-20450839D02*
X28472438Y-20403220D01*
X28472438Y-20403220D02*
X28424819Y-20307982D01*
X28424819Y-20307982D02*
X28424819Y-20069887D01*
X28424819Y-20069887D02*
X28472438Y-19974649D01*
X28472438Y-19974649D02*
X28520057Y-19927030D01*
X28520057Y-19927030D02*
X28615295Y-19879411D01*
X28615295Y-19879411D02*
X28710533Y-19879411D01*
X28710533Y-19879411D02*
X28853390Y-19927030D01*
X28853390Y-19927030D02*
X29424819Y-20498458D01*
X29424819Y-20498458D02*
X29424819Y-19879411D01*
X30754286Y-35654819D02*
X30754286Y-34654819D01*
X30754286Y-34654819D02*
X30992381Y-34654819D01*
X30992381Y-34654819D02*
X31135238Y-34702438D01*
X31135238Y-34702438D02*
X31230476Y-34797676D01*
X31230476Y-34797676D02*
X31278095Y-34892914D01*
X31278095Y-34892914D02*
X31325714Y-35083390D01*
X31325714Y-35083390D02*
X31325714Y-35226247D01*
X31325714Y-35226247D02*
X31278095Y-35416723D01*
X31278095Y-35416723D02*
X31230476Y-35511961D01*
X31230476Y-35511961D02*
X31135238Y-35607200D01*
X31135238Y-35607200D02*
X30992381Y-35654819D01*
X30992381Y-35654819D02*
X30754286Y-35654819D01*
X31944762Y-34654819D02*
X32135238Y-34654819D01*
X32135238Y-34654819D02*
X32230476Y-34702438D01*
X32230476Y-34702438D02*
X32325714Y-34797676D01*
X32325714Y-34797676D02*
X32373333Y-34988152D01*
X32373333Y-34988152D02*
X32373333Y-35321485D01*
X32373333Y-35321485D02*
X32325714Y-35511961D01*
X32325714Y-35511961D02*
X32230476Y-35607200D01*
X32230476Y-35607200D02*
X32135238Y-35654819D01*
X32135238Y-35654819D02*
X31944762Y-35654819D01*
X31944762Y-35654819D02*
X31849524Y-35607200D01*
X31849524Y-35607200D02*
X31754286Y-35511961D01*
X31754286Y-35511961D02*
X31706667Y-35321485D01*
X31706667Y-35321485D02*
X31706667Y-34988152D01*
X31706667Y-34988152D02*
X31754286Y-34797676D01*
X31754286Y-34797676D02*
X31849524Y-34702438D01*
X31849524Y-34702438D02*
X31944762Y-34654819D01*
X18402438Y-21889411D02*
X18354819Y-21984649D01*
X18354819Y-21984649D02*
X18354819Y-22127506D01*
X18354819Y-22127506D02*
X18402438Y-22270363D01*
X18402438Y-22270363D02*
X18497676Y-22365601D01*
X18497676Y-22365601D02*
X18592914Y-22413220D01*
X18592914Y-22413220D02*
X18783390Y-22460839D01*
X18783390Y-22460839D02*
X18926247Y-22460839D01*
X18926247Y-22460839D02*
X19116723Y-22413220D01*
X19116723Y-22413220D02*
X19211961Y-22365601D01*
X19211961Y-22365601D02*
X19307200Y-22270363D01*
X19307200Y-22270363D02*
X19354819Y-22127506D01*
X19354819Y-22127506D02*
X19354819Y-22032268D01*
X19354819Y-22032268D02*
X19307200Y-21889411D01*
X19307200Y-21889411D02*
X19259580Y-21841792D01*
X19259580Y-21841792D02*
X18926247Y-21841792D01*
X18926247Y-21841792D02*
X18926247Y-22032268D01*
X19354819Y-21413220D02*
X18354819Y-21413220D01*
X18354819Y-21413220D02*
X19354819Y-20841792D01*
X19354819Y-20841792D02*
X18354819Y-20841792D01*
X19354819Y-20365601D02*
X18354819Y-20365601D01*
X18354819Y-20365601D02*
X18354819Y-20127506D01*
X18354819Y-20127506D02*
X18402438Y-19984649D01*
X18402438Y-19984649D02*
X18497676Y-19889411D01*
X18497676Y-19889411D02*
X18592914Y-19841792D01*
X18592914Y-19841792D02*
X18783390Y-19794173D01*
X18783390Y-19794173D02*
X18926247Y-19794173D01*
X18926247Y-19794173D02*
X19116723Y-19841792D01*
X19116723Y-19841792D02*
X19211961Y-19889411D01*
X19211961Y-19889411D02*
X19307200Y-19984649D01*
X19307200Y-19984649D02*
X19354819Y-20127506D01*
X19354819Y-20127506D02*
X19354819Y-20365601D01*
X69809104Y-35410839D02*
X69809104Y-34934649D01*
X70094819Y-35506077D02*
X69094819Y-35172744D01*
X69094819Y-35172744D02*
X70094819Y-34839411D01*
X69094819Y-34077506D02*
X69094819Y-34267982D01*
X69094819Y-34267982D02*
X69142438Y-34363220D01*
X69142438Y-34363220D02*
X69190057Y-34410839D01*
X69190057Y-34410839D02*
X69332914Y-34506077D01*
X69332914Y-34506077D02*
X69523390Y-34553696D01*
X69523390Y-34553696D02*
X69904342Y-34553696D01*
X69904342Y-34553696D02*
X69999580Y-34506077D01*
X69999580Y-34506077D02*
X70047200Y-34458458D01*
X70047200Y-34458458D02*
X70094819Y-34363220D01*
X70094819Y-34363220D02*
X70094819Y-34172744D01*
X70094819Y-34172744D02*
X70047200Y-34077506D01*
X70047200Y-34077506D02*
X69999580Y-34029887D01*
X69999580Y-34029887D02*
X69904342Y-33982268D01*
X69904342Y-33982268D02*
X69666247Y-33982268D01*
X69666247Y-33982268D02*
X69571009Y-34029887D01*
X69571009Y-34029887D02*
X69523390Y-34077506D01*
X69523390Y-34077506D02*
X69475771Y-34172744D01*
X69475771Y-34172744D02*
X69475771Y-34363220D01*
X69475771Y-34363220D02*
X69523390Y-34458458D01*
X69523390Y-34458458D02*
X69571009Y-34506077D01*
X69571009Y-34506077D02*
X69666247Y-34553696D01*
X54331009Y-35029887D02*
X54378628Y-34887030D01*
X54378628Y-34887030D02*
X54426247Y-34839411D01*
X54426247Y-34839411D02*
X54521485Y-34791792D01*
X54521485Y-34791792D02*
X54664342Y-34791792D01*
X54664342Y-34791792D02*
X54759580Y-34839411D01*
X54759580Y-34839411D02*
X54807200Y-34887030D01*
X54807200Y-34887030D02*
X54854819Y-34982268D01*
X54854819Y-34982268D02*
X54854819Y-35363220D01*
X54854819Y-35363220D02*
X53854819Y-35363220D01*
X53854819Y-35363220D02*
X53854819Y-35029887D01*
X53854819Y-35029887D02*
X53902438Y-34934649D01*
X53902438Y-34934649D02*
X53950057Y-34887030D01*
X53950057Y-34887030D02*
X54045295Y-34839411D01*
X54045295Y-34839411D02*
X54140533Y-34839411D01*
X54140533Y-34839411D02*
X54235771Y-34887030D01*
X54235771Y-34887030D02*
X54283390Y-34934649D01*
X54283390Y-34934649D02*
X54331009Y-35029887D01*
X54331009Y-35029887D02*
X54331009Y-35363220D01*
X53854819Y-33934649D02*
X53854819Y-34125125D01*
X53854819Y-34125125D02*
X53902438Y-34220363D01*
X53902438Y-34220363D02*
X53950057Y-34267982D01*
X53950057Y-34267982D02*
X54092914Y-34363220D01*
X54092914Y-34363220D02*
X54283390Y-34410839D01*
X54283390Y-34410839D02*
X54664342Y-34410839D01*
X54664342Y-34410839D02*
X54759580Y-34363220D01*
X54759580Y-34363220D02*
X54807200Y-34315601D01*
X54807200Y-34315601D02*
X54854819Y-34220363D01*
X54854819Y-34220363D02*
X54854819Y-34029887D01*
X54854819Y-34029887D02*
X54807200Y-33934649D01*
X54807200Y-33934649D02*
X54759580Y-33887030D01*
X54759580Y-33887030D02*
X54664342Y-33839411D01*
X54664342Y-33839411D02*
X54426247Y-33839411D01*
X54426247Y-33839411D02*
X54331009Y-33887030D01*
X54331009Y-33887030D02*
X54283390Y-33934649D01*
X54283390Y-33934649D02*
X54235771Y-34029887D01*
X54235771Y-34029887D02*
X54235771Y-34220363D01*
X54235771Y-34220363D02*
X54283390Y-34315601D01*
X54283390Y-34315601D02*
X54331009Y-34363220D01*
X54331009Y-34363220D02*
X54426247Y-34410839D01*
X47854819Y-29266779D02*
X48569104Y-29266779D01*
X48569104Y-29266779D02*
X48711961Y-29314398D01*
X48711961Y-29314398D02*
X48807200Y-29409636D01*
X48807200Y-29409636D02*
X48854819Y-29552493D01*
X48854819Y-29552493D02*
X48854819Y-29647731D01*
X48331009Y-28457255D02*
X48378628Y-28314398D01*
X48378628Y-28314398D02*
X48426247Y-28266779D01*
X48426247Y-28266779D02*
X48521485Y-28219160D01*
X48521485Y-28219160D02*
X48664342Y-28219160D01*
X48664342Y-28219160D02*
X48759580Y-28266779D01*
X48759580Y-28266779D02*
X48807200Y-28314398D01*
X48807200Y-28314398D02*
X48854819Y-28409636D01*
X48854819Y-28409636D02*
X48854819Y-28790588D01*
X48854819Y-28790588D02*
X47854819Y-28790588D01*
X47854819Y-28790588D02*
X47854819Y-28457255D01*
X47854819Y-28457255D02*
X47902438Y-28362017D01*
X47902438Y-28362017D02*
X47950057Y-28314398D01*
X47950057Y-28314398D02*
X48045295Y-28266779D01*
X48045295Y-28266779D02*
X48140533Y-28266779D01*
X48140533Y-28266779D02*
X48235771Y-28314398D01*
X48235771Y-28314398D02*
X48283390Y-28362017D01*
X48283390Y-28362017D02*
X48331009Y-28457255D01*
X48331009Y-28457255D02*
X48331009Y-28790588D01*
X48423866Y-35950951D02*
X48423866Y-35189047D01*
X48804819Y-35569999D02*
X48042914Y-35569999D01*
X20834819Y-35628458D02*
X20834819Y-35009411D01*
X20834819Y-35009411D02*
X21215771Y-35342744D01*
X21215771Y-35342744D02*
X21215771Y-35199887D01*
X21215771Y-35199887D02*
X21263390Y-35104649D01*
X21263390Y-35104649D02*
X21311009Y-35057030D01*
X21311009Y-35057030D02*
X21406247Y-35009411D01*
X21406247Y-35009411D02*
X21644342Y-35009411D01*
X21644342Y-35009411D02*
X21739580Y-35057030D01*
X21739580Y-35057030D02*
X21787200Y-35104649D01*
X21787200Y-35104649D02*
X21834819Y-35199887D01*
X21834819Y-35199887D02*
X21834819Y-35485601D01*
X21834819Y-35485601D02*
X21787200Y-35580839D01*
X21787200Y-35580839D02*
X21739580Y-35628458D01*
X20834819Y-34723696D02*
X21834819Y-34390363D01*
X21834819Y-34390363D02*
X20834819Y-34057030D01*
X20834819Y-33818934D02*
X20834819Y-33199887D01*
X20834819Y-33199887D02*
X21215771Y-33533220D01*
X21215771Y-33533220D02*
X21215771Y-33390363D01*
X21215771Y-33390363D02*
X21263390Y-33295125D01*
X21263390Y-33295125D02*
X21311009Y-33247506D01*
X21311009Y-33247506D02*
X21406247Y-33199887D01*
X21406247Y-33199887D02*
X21644342Y-33199887D01*
X21644342Y-33199887D02*
X21739580Y-33247506D01*
X21739580Y-33247506D02*
X21787200Y-33295125D01*
X21787200Y-33295125D02*
X21834819Y-33390363D01*
X21834819Y-33390363D02*
X21834819Y-33676077D01*
X21834819Y-33676077D02*
X21787200Y-33771315D01*
X21787200Y-33771315D02*
X21739580Y-33818934D01*
D12*
G04 #@! TO.C,C1*
X28250000Y-25768748D02*
X28250000Y-26291252D01*
X29720000Y-25768748D02*
X29720000Y-26291252D01*
G04 #@! TO.C,C4*
X27415000Y-33300580D02*
X27415000Y-33019420D01*
X28435000Y-33300580D02*
X28435000Y-33019420D01*
G04 #@! TO.C,D2*
X41065000Y-27875001D02*
X41065000Y-30560000D01*
X42985000Y-27875001D02*
X41065000Y-27875001D01*
X42985000Y-30560000D02*
X42985000Y-27875001D01*
G04 #@! TO.C,R22*
X25942500Y-32922742D02*
X25942500Y-33397258D01*
X26987500Y-32922742D02*
X26987500Y-33397258D01*
G04 #@! TO.C,F1*
X26350000Y-26412779D02*
X26350000Y-26087221D01*
X27370000Y-26412779D02*
X27370000Y-26087221D01*
G04 #@! TO.C,R16*
X28862500Y-22062742D02*
X28862500Y-22537258D01*
X29907500Y-22062742D02*
X29907500Y-22537258D01*
G04 #@! TO.C,R2*
X39082500Y-33397258D02*
X39082500Y-32922742D01*
X40127500Y-33397258D02*
X40127500Y-32922742D01*
G04 #@! TO.C,R6*
X31782500Y-33397258D02*
X31782500Y-32922742D01*
X32827500Y-33397258D02*
X32827500Y-32922742D01*
G04 #@! TO.C,R18*
X48717742Y-23987500D02*
X49192258Y-23987500D01*
X48717742Y-25032500D02*
X49192258Y-25032500D01*
G04 #@! TO.C,D4*
X41065000Y-24910000D02*
X41065000Y-27595000D01*
X41065000Y-27595000D02*
X42985000Y-27595000D01*
X42985000Y-27595000D02*
X42985000Y-24910000D01*
G04 #@! TO.C,Y2*
X67098579Y-23576016D02*
X66143984Y-22621421D01*
X68336016Y-22338579D02*
X67381421Y-21383984D01*
G04 #@! TO.C,U1*
X34815000Y-24320000D02*
X38575000Y-24320000D01*
X34815000Y-31140000D02*
X38575000Y-31140000D01*
X38575000Y-24320000D02*
X38575000Y-25580000D01*
X38575000Y-31140000D02*
X38575000Y-29880000D01*
X33535000Y-24420000D02*
X33295000Y-24090000D01*
X33775000Y-24090000D01*
X33535000Y-24420000D01*
G36*
X33535000Y-24420000D02*
G01*
X33295000Y-24090000D01*
X33775000Y-24090000D01*
X33535000Y-24420000D01*
G37*
G04 #@! TO.C,R7*
X37622500Y-33397258D02*
X37622500Y-32922742D01*
X38667500Y-33397258D02*
X38667500Y-32922742D01*
G04 #@! TO.C,R21*
X25942500Y-22537258D02*
X25942500Y-22062742D01*
X26987500Y-22537258D02*
X26987500Y-22062742D01*
G04 #@! TO.C,R10*
X34702500Y-22062742D02*
X34702500Y-22537258D01*
X35747500Y-22062742D02*
X35747500Y-22537258D01*
G04 #@! TO.C,Y1*
X56077487Y-19859060D02*
X53249060Y-22687487D01*
X58410940Y-22192513D02*
X56077487Y-19859060D01*
G04 #@! TO.C,C9*
X64851962Y-20286789D02*
X65050773Y-20087978D01*
X65573211Y-21008038D02*
X65772022Y-20809227D01*
G04 #@! TO.C,R20*
X49192258Y-30427500D02*
X48717742Y-30427500D01*
X49192258Y-31472500D02*
X48717742Y-31472500D01*
G04 #@! TO.C,SW3*
X46385000Y-20730000D02*
X46385000Y-21030000D01*
X46385000Y-23530000D02*
X46385000Y-23230000D01*
X49685000Y-20730000D02*
X46385000Y-20730000D01*
X49685000Y-21030000D02*
X49685000Y-20730000D01*
X49685000Y-23230000D02*
X49685000Y-23530000D01*
X49685000Y-23530000D02*
X46385000Y-23530000D01*
G04 #@! TO.C,SW1*
X46385000Y-31930000D02*
X49685000Y-31930000D01*
X46385000Y-32230000D02*
X46385000Y-31930000D01*
X46385000Y-34430000D02*
X46385000Y-34730000D01*
X46385000Y-34730000D02*
X49685000Y-34730000D01*
X49685000Y-31930000D02*
X49685000Y-32230000D01*
X49685000Y-34730000D02*
X49685000Y-34430000D01*
G04 #@! TO.C,R13*
X30322500Y-33397258D02*
X30322500Y-32922742D01*
X31367500Y-33397258D02*
X31367500Y-32922742D01*
G04 #@! TO.C,F2*
X26350000Y-29047221D02*
X26350000Y-29372779D01*
X27370000Y-29047221D02*
X27370000Y-29372779D01*
G04 #@! TO.C,R14*
X28862500Y-33397258D02*
X28862500Y-32922742D01*
X29907500Y-33397258D02*
X29907500Y-32922742D01*
G04 #@! TO.C,R8*
X33242500Y-22062742D02*
X33242500Y-22537258D01*
X34287500Y-22062742D02*
X34287500Y-22537258D01*
G04 #@! TO.C,J1*
X78530000Y-22650000D02*
X79800000Y-22650000D01*
X78530000Y-23920000D02*
X78530000Y-22650000D01*
X80842929Y-26080000D02*
X81240000Y-26080000D01*
X80842929Y-26840000D02*
X81240000Y-26840000D01*
X80842929Y-28620000D02*
X81240000Y-28620000D01*
X80842929Y-29380000D02*
X81240000Y-29380000D01*
X80842929Y-31160000D02*
X81240000Y-31160000D01*
X80842929Y-31920000D02*
X81240000Y-31920000D01*
X80910000Y-23540000D02*
X81240000Y-23540000D01*
X80910000Y-24300000D02*
X81240000Y-24300000D01*
X81240000Y-22590000D02*
X81240000Y-32870000D01*
X81240000Y-25190000D02*
X83900000Y-25190000D01*
X81240000Y-27730000D02*
X83900000Y-27730000D01*
X81240000Y-30270000D02*
X83900000Y-30270000D01*
X81240000Y-32870000D02*
X83900000Y-32870000D01*
X83900000Y-22590000D02*
X81240000Y-22590000D01*
X83900000Y-23540000D02*
X86100000Y-23540000D01*
X83900000Y-23600000D02*
X86100000Y-23600000D01*
X83900000Y-23720000D02*
X86100000Y-23720000D01*
X83900000Y-23840000D02*
X86100000Y-23840000D01*
X83900000Y-23960000D02*
X86100000Y-23960000D01*
X83900000Y-24080000D02*
X86100000Y-24080000D01*
X83900000Y-24200000D02*
X86100000Y-24200000D01*
X83900000Y-26080000D02*
X86100000Y-26080000D01*
X83900000Y-28620000D02*
X86100000Y-28620000D01*
X83900000Y-31160000D02*
X86100000Y-31160000D01*
X83900000Y-32870000D02*
X83900000Y-22590000D01*
X86100000Y-23540000D02*
X86100000Y-24300000D01*
X86100000Y-24300000D02*
X83900000Y-24300000D01*
X86100000Y-26080000D02*
X86100000Y-26840000D01*
X86100000Y-26840000D02*
X83900000Y-26840000D01*
X86100000Y-28620000D02*
X86100000Y-29380000D01*
X86100000Y-29380000D02*
X83900000Y-29380000D01*
X86100000Y-31160000D02*
X86100000Y-31920000D01*
X86100000Y-31920000D02*
X83900000Y-31920000D01*
G04 #@! TO.C,JP2*
X72315000Y-20100000D02*
X75115000Y-20100000D01*
X72315000Y-22100000D02*
X72315000Y-20100000D01*
X75115000Y-20100000D02*
X75115000Y-22100000D01*
X75115000Y-22100000D02*
X72315000Y-22100000D01*
G04 #@! TO.C,R4*
X33242500Y-33397258D02*
X33242500Y-32922742D01*
X34287500Y-33397258D02*
X34287500Y-32922742D01*
G04 #@! TO.C,C5*
X69470000Y-28789420D02*
X69470000Y-29070580D01*
X70490000Y-28789420D02*
X70490000Y-29070580D01*
G04 #@! TO.C,R3*
X36162500Y-33397258D02*
X36162500Y-32922742D01*
X37207500Y-33397258D02*
X37207500Y-32922742D01*
G04 #@! TO.C,R1*
X40542500Y-33397258D02*
X40542500Y-32922742D01*
X41587500Y-33397258D02*
X41587500Y-32922742D01*
G04 #@! TO.C,JP1*
X69010000Y-20100000D02*
X71810000Y-20100000D01*
X69010000Y-22100000D02*
X69010000Y-20100000D01*
X71810000Y-20100000D02*
X71810000Y-22100000D01*
X71810000Y-22100000D02*
X69010000Y-22100000D01*
G04 #@! TO.C,C2*
X28250000Y-29691252D02*
X28250000Y-29168748D01*
X29720000Y-29691252D02*
X29720000Y-29168748D01*
G04 #@! TO.C,C7*
X58279970Y-20841219D02*
X58478781Y-21040030D01*
X59001219Y-20119970D02*
X59200030Y-20318781D01*
G04 #@! TO.C,R9*
X36162500Y-22062742D02*
X36162500Y-22537258D01*
X37207500Y-22062742D02*
X37207500Y-22537258D01*
G04 #@! TO.C,R11*
X37622500Y-22062742D02*
X37622500Y-22537258D01*
X38667500Y-22062742D02*
X38667500Y-22537258D01*
G04 #@! TO.C,R5*
X34702500Y-33397258D02*
X34702500Y-32922742D01*
X35747500Y-33397258D02*
X35747500Y-32922742D01*
G04 #@! TO.C,R17*
X30322500Y-22062742D02*
X30322500Y-22537258D01*
X31367500Y-22062742D02*
X31367500Y-22537258D01*
G04 #@! TO.C,D3*
X43715000Y-20520000D02*
X43065000Y-20520000D01*
X43715000Y-20520000D02*
X44365000Y-20520000D01*
X43715000Y-23640000D02*
X43065000Y-23640000D01*
X43715000Y-23640000D02*
X44365000Y-23640000D01*
X45117500Y-23920000D02*
X44637500Y-23920000D01*
X44877500Y-23590000D01*
X45117500Y-23920000D01*
G36*
X45117500Y-23920000D02*
G01*
X44637500Y-23920000D01*
X44877500Y-23590000D01*
X45117500Y-23920000D01*
G37*
G04 #@! TO.C,C12*
X53498781Y-25580030D02*
X53299970Y-25381219D01*
X54220030Y-24858781D02*
X54021219Y-24659970D01*
G04 #@! TO.C,D1*
X30115000Y-30090000D02*
X30115000Y-26080000D01*
X30115000Y-30090000D02*
X32115000Y-30090000D01*
X32115000Y-30090000D02*
X32115000Y-26080000D01*
G04 #@! TO.C,C10*
X68949970Y-23908781D02*
X69148781Y-23709970D01*
X69671219Y-24630030D02*
X69870030Y-24431219D01*
G04 #@! TO.C,R12*
X31782500Y-22062742D02*
X31782500Y-22537258D01*
X32827500Y-22062742D02*
X32827500Y-22537258D01*
G04 #@! TO.C,U2*
X55500475Y-27730000D02*
X55836351Y-28065876D01*
X55836351Y-27394124D02*
X55500475Y-27730000D01*
X61684124Y-21546351D02*
X62020000Y-21210475D01*
X62020000Y-21210475D02*
X62355876Y-21546351D01*
X62020000Y-34249525D02*
X61684124Y-33913649D01*
X62355876Y-33913649D02*
X62020000Y-34249525D01*
X68203649Y-27394124D02*
X68369819Y-27560294D01*
X68203649Y-28065876D02*
X68327392Y-27942132D01*
X68942575Y-27793640D02*
X68603164Y-28133051D01*
X68539525Y-27730000D01*
X68942575Y-27793640D01*
G36*
X68942575Y-27793640D02*
G01*
X68603164Y-28133051D01*
X68539525Y-27730000D01*
X68942575Y-27793640D01*
G37*
G04 #@! TO.C,Q1*
X43715000Y-31820000D02*
X43065000Y-31820000D01*
X43715000Y-31820000D02*
X44365000Y-31820000D01*
X43715000Y-34940000D02*
X43065000Y-34940000D01*
X43715000Y-34940000D02*
X44365000Y-34940000D01*
X45117500Y-35220000D02*
X44637500Y-35220000D01*
X44877500Y-34890000D01*
X45117500Y-35220000D01*
G36*
X45117500Y-35220000D02*
G01*
X44637500Y-35220000D01*
X44877500Y-34890000D01*
X45117500Y-35220000D01*
G37*
G04 #@! TO.C,R15*
X27402500Y-22062742D02*
X27402500Y-22537258D01*
X28447500Y-22062742D02*
X28447500Y-22537258D01*
G04 #@! TO.C,SW2*
X43265000Y-25421000D02*
X43265000Y-30040000D01*
X43975000Y-25421000D02*
X43265000Y-25421000D01*
X43975000Y-30040000D02*
X43265000Y-30040000D01*
X46545000Y-24030000D02*
X46545000Y-25421000D01*
X47195000Y-25421000D02*
X46545000Y-25421000D01*
X47195000Y-25421000D02*
X47195000Y-30040000D01*
X47195000Y-30040000D02*
X46485000Y-30040000D01*
G04 #@! TO.C,C3*
X70845000Y-26620000D02*
X70845000Y-30530000D01*
X72715000Y-26620000D02*
X70845000Y-26620000D01*
X72715000Y-30530000D02*
X72715000Y-26620000D01*
G04 #@! TO.C,R19*
X39082500Y-22062742D02*
X39082500Y-22537258D01*
X40127500Y-22062742D02*
X40127500Y-22537258D01*
G04 #@! TO.C,J4*
X20815000Y-23060000D02*
X22515000Y-23060000D01*
X20815000Y-32400000D02*
X22515000Y-32400000D01*
G04 #@! TD*
%LPC*%
D13*
G04 #@! TO.C,C1*
X28985000Y-25080000D03*
X28985000Y-26980000D03*
G04 #@! TD*
D14*
G04 #@! TO.C,C4*
X27925000Y-33935000D03*
X27925000Y-32385000D03*
G04 #@! TD*
D15*
G04 #@! TO.C,D2*
X42025000Y-28622499D03*
X42025000Y-30497501D03*
G04 #@! TD*
D16*
G04 #@! TO.C,R22*
X26465000Y-32335000D03*
X26465000Y-33985000D03*
G04 #@! TD*
D17*
G04 #@! TO.C,F1*
X26860000Y-27037500D03*
X26860000Y-25462500D03*
G04 #@! TD*
D16*
G04 #@! TO.C,R16*
X29385000Y-21475000D03*
X29385000Y-23125000D03*
G04 #@! TD*
D18*
G04 #@! TO.C,R2*
X39605000Y-33985000D03*
X39605000Y-32335000D03*
G04 #@! TD*
G04 #@! TO.C,R6*
X32305000Y-33985000D03*
X32305000Y-32335000D03*
G04 #@! TD*
D19*
G04 #@! TO.C,R18*
X48130000Y-24510000D03*
X49780000Y-24510000D03*
G04 #@! TD*
D20*
G04 #@! TO.C,D4*
X42025000Y-26847500D03*
X42025000Y-24972500D03*
G04 #@! TD*
D21*
G04 #@! TO.C,Y2*
X66356117Y-21596117D03*
X68123883Y-23363883D03*
G04 #@! TD*
D22*
G04 #@! TO.C,U1*
X33515000Y-25430000D03*
X33515000Y-27730000D03*
X33515000Y-30030000D03*
D23*
X39815000Y-27730000D03*
G04 #@! TD*
D18*
G04 #@! TO.C,R7*
X38145000Y-33985000D03*
X38145000Y-32335000D03*
G04 #@! TD*
G04 #@! TO.C,R21*
X26465000Y-23125000D03*
X26465000Y-21475000D03*
G04 #@! TD*
D16*
G04 #@! TO.C,R10*
X35225000Y-21475000D03*
X35225000Y-23125000D03*
G04 #@! TD*
D24*
G04 #@! TO.C,Y1*
X56006777Y-21061142D03*
X54451142Y-22616777D03*
X55653223Y-23818858D03*
X57208858Y-22263223D03*
G04 #@! TD*
D25*
G04 #@! TO.C,C9*
X64763984Y-21096016D03*
X65860000Y-20000000D03*
G04 #@! TD*
D26*
G04 #@! TO.C,R20*
X49780000Y-30950000D03*
X48130000Y-30950000D03*
G04 #@! TD*
D27*
G04 #@! TO.C,SW3*
X49735000Y-22130000D03*
X46335000Y-22130000D03*
G04 #@! TD*
G04 #@! TO.C,SW1*
X46335000Y-33330000D03*
X49735000Y-33330000D03*
G04 #@! TD*
D18*
G04 #@! TO.C,R13*
X30845000Y-33985000D03*
X30845000Y-32335000D03*
G04 #@! TD*
D28*
G04 #@! TO.C,F2*
X26860000Y-28422500D03*
X26860000Y-29997500D03*
G04 #@! TD*
D18*
G04 #@! TO.C,R14*
X29385000Y-33985000D03*
X29385000Y-32335000D03*
G04 #@! TD*
D16*
G04 #@! TO.C,R8*
X33765000Y-21475000D03*
X33765000Y-23125000D03*
G04 #@! TD*
D29*
G04 #@! TO.C,J1*
X79800000Y-23920000D03*
D30*
X79800000Y-26460000D03*
X79800000Y-29000000D03*
X79800000Y-31540000D03*
G04 #@! TD*
D31*
G04 #@! TO.C,JP2*
X72990000Y-21100000D03*
D32*
X74440000Y-21100000D03*
G04 #@! TD*
D18*
G04 #@! TO.C,R4*
X33765000Y-33985000D03*
X33765000Y-32335000D03*
G04 #@! TD*
D33*
G04 #@! TO.C,C5*
X69980000Y-28155000D03*
X69980000Y-29705000D03*
G04 #@! TD*
D18*
G04 #@! TO.C,R3*
X36685000Y-33985000D03*
X36685000Y-32335000D03*
G04 #@! TD*
G04 #@! TO.C,R1*
X41065000Y-33985000D03*
X41065000Y-32335000D03*
G04 #@! TD*
D31*
G04 #@! TO.C,JP1*
X69685000Y-21100000D03*
D32*
X71135000Y-21100000D03*
G04 #@! TD*
D34*
G04 #@! TO.C,C2*
X28985000Y-30380000D03*
X28985000Y-28480000D03*
G04 #@! TD*
D35*
G04 #@! TO.C,C7*
X58191992Y-20031992D03*
X59288008Y-21128008D03*
G04 #@! TD*
D16*
G04 #@! TO.C,R9*
X36685000Y-21475000D03*
X36685000Y-23125000D03*
G04 #@! TD*
G04 #@! TO.C,R11*
X38145000Y-21475000D03*
X38145000Y-23125000D03*
G04 #@! TD*
D18*
G04 #@! TO.C,R5*
X35225000Y-33985000D03*
X35225000Y-32335000D03*
G04 #@! TD*
D16*
G04 #@! TO.C,R17*
X30845000Y-21475000D03*
X30845000Y-23125000D03*
G04 #@! TD*
D36*
G04 #@! TO.C,D3*
X44652500Y-23030000D03*
X44652500Y-21130000D03*
X42777500Y-22080000D03*
G04 #@! TD*
D37*
G04 #@! TO.C,C12*
X54308008Y-25668008D03*
X53211992Y-24571992D03*
G04 #@! TD*
D38*
G04 #@! TO.C,D1*
X31115000Y-29380000D03*
X31115000Y-26080000D03*
G04 #@! TD*
D25*
G04 #@! TO.C,C10*
X68861992Y-24718008D03*
X69958008Y-23621992D03*
G04 #@! TD*
D16*
G04 #@! TO.C,R12*
X32305000Y-21475000D03*
X32305000Y-23125000D03*
G04 #@! TD*
D39*
G04 #@! TO.C,U2*
X67791759Y-27261542D03*
D40*
X67438206Y-26907988D03*
X67084652Y-26554435D03*
X66731099Y-26200882D03*
X66377546Y-25847328D03*
X66023992Y-25493775D03*
X65670439Y-25140221D03*
X65316885Y-24786668D03*
X64963332Y-24433115D03*
X64609779Y-24079561D03*
X64256225Y-23726008D03*
X63902672Y-23372454D03*
X63549118Y-23018901D03*
X63195565Y-22665348D03*
X62842012Y-22311794D03*
D41*
X62488458Y-21958241D03*
D42*
X61551542Y-21958241D03*
D43*
X61197988Y-22311794D03*
X60844435Y-22665348D03*
X60490882Y-23018901D03*
X60137328Y-23372454D03*
X59783775Y-23726008D03*
X59430221Y-24079561D03*
X59076668Y-24433115D03*
X58723115Y-24786668D03*
X58369561Y-25140221D03*
X58016008Y-25493775D03*
X57662454Y-25847328D03*
X57308901Y-26200882D03*
X56955348Y-26554435D03*
X56601794Y-26907988D03*
D44*
X56248241Y-27261542D03*
D45*
X56248241Y-28198458D03*
D40*
X56601794Y-28552012D03*
X56955348Y-28905565D03*
X57308901Y-29259118D03*
X57662454Y-29612672D03*
X58016008Y-29966225D03*
X58369561Y-30319779D03*
X58723115Y-30673332D03*
X59076668Y-31026885D03*
X59430221Y-31380439D03*
X59783775Y-31733992D03*
X60137328Y-32087546D03*
X60490882Y-32441099D03*
X60844435Y-32794652D03*
X61197988Y-33148206D03*
D46*
X61551542Y-33501759D03*
D47*
X62488458Y-33501759D03*
D43*
X62842012Y-33148206D03*
X63195565Y-32794652D03*
X63549118Y-32441099D03*
X63902672Y-32087546D03*
X64256225Y-31733992D03*
X64609779Y-31380439D03*
X64963332Y-31026885D03*
X65316885Y-30673332D03*
X65670439Y-30319779D03*
X66023992Y-29966225D03*
X66377546Y-29612672D03*
X66731099Y-29259118D03*
X67084652Y-28905565D03*
X67438206Y-28552012D03*
D48*
X67791759Y-28198458D03*
D49*
X62020000Y-27730000D03*
G04 #@! TD*
D36*
G04 #@! TO.C,Q1*
X44652500Y-34330000D03*
X44652500Y-32430000D03*
X42777500Y-33380000D03*
G04 #@! TD*
D16*
G04 #@! TO.C,R15*
X27925000Y-21475000D03*
X27925000Y-23125000D03*
G04 #@! TD*
D50*
G04 #@! TO.C,SW2*
X45865000Y-24655000D03*
X44595000Y-24655000D03*
X44595000Y-30805000D03*
X45865000Y-30805000D03*
G04 #@! TD*
D51*
G04 #@! TO.C,C3*
X71780000Y-27580000D03*
X71780000Y-30280000D03*
G04 #@! TD*
D16*
G04 #@! TO.C,R19*
X39605000Y-21475000D03*
X39605000Y-23125000D03*
G04 #@! TD*
D52*
G04 #@! TO.C,J4*
X23320000Y-24840000D03*
X23320000Y-30620000D03*
D53*
X24420000Y-24530000D03*
D54*
X24395000Y-25330000D03*
D55*
X24395000Y-26480000D03*
X24395000Y-27480000D03*
X24395000Y-27980000D03*
X24395000Y-28980000D03*
D54*
X24395000Y-30130000D03*
D53*
X24420000Y-30930000D03*
X24420000Y-30930000D03*
D54*
X24395000Y-30130000D03*
D55*
X24395000Y-29480000D03*
X24395000Y-28480000D03*
X24395000Y-26980000D03*
X24395000Y-25980000D03*
D54*
X24395000Y-25330000D03*
D53*
X24420000Y-24530000D03*
D56*
X23820000Y-23410000D03*
D57*
X19640000Y-23410000D03*
D56*
X23820000Y-32050000D03*
D57*
X19640000Y-32050000D03*
G04 #@! TD*
D29*
G04 #@! TO.C,J5*
X46780000Y-18840000D03*
D30*
X49320000Y-18840000D03*
X51860000Y-18840000D03*
X54400000Y-18840000D03*
X56940000Y-18840000D03*
X59480000Y-18840000D03*
X62020000Y-18840000D03*
X64560000Y-18840000D03*
X67100000Y-18840000D03*
X69640000Y-18840000D03*
X72180000Y-18840000D03*
X74720000Y-18840000D03*
X77260000Y-18840000D03*
X79800000Y-18840000D03*
X82340000Y-18840000D03*
X84880000Y-18840000D03*
G04 #@! TD*
D29*
G04 #@! TO.C,J6*
X18840000Y-18840000D03*
D30*
X21380000Y-18840000D03*
X23920000Y-18840000D03*
X26460000Y-18840000D03*
X29000000Y-18840000D03*
X31540000Y-18840000D03*
X34080000Y-18840000D03*
X36620000Y-18840000D03*
X39160000Y-18840000D03*
X41700000Y-18840000D03*
G04 #@! TD*
D29*
G04 #@! TO.C,J2*
X46780000Y-36620000D03*
D30*
X49320000Y-36620000D03*
X51860000Y-36620000D03*
X54400000Y-36620000D03*
X56940000Y-36620000D03*
X59480000Y-36620000D03*
X62020000Y-36620000D03*
X64560000Y-36620000D03*
X67100000Y-36620000D03*
X69640000Y-36620000D03*
X72180000Y-36620000D03*
X74720000Y-36620000D03*
X77260000Y-36620000D03*
X79800000Y-36620000D03*
X82340000Y-36620000D03*
X84880000Y-36620000D03*
G04 #@! TD*
D29*
G04 #@! TO.C,J3*
X18840000Y-36620000D03*
D30*
X21380000Y-36620000D03*
X23920000Y-36620000D03*
X26460000Y-36620000D03*
X29000000Y-36620000D03*
X31540000Y-36620000D03*
X34080000Y-36620000D03*
X36620000Y-36620000D03*
X39160000Y-36620000D03*
X41700000Y-36620000D03*
G04 #@! TD*
%LPD*%
M02*
