M48
; DRILL file {KiCad 8.0.8} date 2025-01-20T02:39:39+0300
; FORMAT={-:-/ absolute / inch / decimal}
; #@! TF.CreationDate,2025-01-20T02:39:39+03:00
; #@! TF.GenerationSoftware,Kicad,Pcbnew,8.0.8
; #@! TF.FileFunction,Plated,1,2,PTH
FMAT,2
INCH
; #@! TA.AperFunction,Plated,PTH,ViaDrill
T1C0.0118
; #@! TA.AperFunction,Plated,PTH,ViaDrill
T2C0.0197
; #@! TA.AperFunction,Plated,PTH,ComponentDrill
T3C0.0236
; #@! TA.AperFunction,Plated,PTH,ComponentDrill
T4C0.0394
%
G90
G05
T1
X0.8602Y-0.8575
X0.985Y-0.8307
X0.9913Y-1.3815
X1.0134Y-1.3016
X1.0142Y-0.8768
X1.0142Y-1.0402
X1.0201Y-1.1606
X1.0945Y-1.0645
X1.0945Y-1.119
X1.3291Y-0.8102
X1.3594Y-1.239
X1.374Y-0.9441
X1.3957Y-0.9642
X1.3957Y-1.239
X1.4173Y-1.0622
X1.4173Y-1.1685
X1.439Y-1.0406
X1.439Y-1.1469
X1.4606Y-1.0189
X1.4606Y-1.1252
X1.5307Y-0.878
X1.6051Y-0.9646
X1.6165Y-1.239
X1.6768Y-1.024
X1.7272Y-1.1685
X1.7492Y-1.4417
X1.8449Y-1.1445
X1.8555Y-0.965
X1.9039Y-0.8701
X1.9886Y-0.8193
X2.0102Y-0.8409
X2.0319Y-0.8189
X2.0535Y-0.8406
X2.0685Y-1.0787
X2.0713Y-1.2602
X2.0992Y-1.0787
X2.1299Y-1.0787
X2.1531Y-1.2984
X2.1598Y-1.0469
X2.1598Y-1.078
X2.172Y-0.8618
X2.1748Y-1.3201
X2.1795Y-1.0094
X2.2087Y-1.3197
X2.2161Y-0.9752
X2.2173Y-0.8972
X2.2366Y-0.9516
X2.2394Y-0.9949
X2.2433Y-1.3201
X2.2563Y-0.9291
X2.2776Y-1.326
X2.2862Y-0.9094
X2.2882Y-0.939
X2.315Y-0.9016
X2.3366Y-1.0217
X2.3449Y-0.8984
X2.3874Y-0.8508
X2.3976Y-0.952
X2.4366Y-0.8433
X2.5224Y-0.8776
X2.5465Y-0.8961
X2.5689Y-0.9173
X2.5988Y-0.9213
X2.6118Y-0.9665
X2.6287Y-0.9421
X2.6413Y-0.9689
X2.8094Y-0.9606
X2.8862Y-1.0854
T2
X1.1906Y-1.1232
X1.2248Y-1.1961
X1.2657Y-0.9551
X1.8673Y-1.3028
T4
X0.7417Y-0.7417
X0.7417Y-1.4417
X0.8417Y-0.7417
X0.8417Y-1.4417
X0.9417Y-0.7417
X0.9417Y-1.4417
X1.0417Y-0.7417
X1.0417Y-1.4417
X1.1417Y-0.7417
X1.1417Y-1.4417
X1.2417Y-0.7417
X1.2417Y-1.4417
X1.3417Y-0.7417
X1.3417Y-1.4417
X1.4417Y-0.7417
X1.4417Y-1.4417
X1.5417Y-0.7417
X1.5417Y-1.4417
X1.6417Y-0.7417
X1.6417Y-1.4417
X1.8417Y-0.7417
X1.8417Y-1.4417
X1.9417Y-0.7417
X1.9417Y-1.4417
X2.0417Y-0.7417
X2.0417Y-1.4417
X2.1417Y-0.7417
X2.1417Y-1.4417
X2.2417Y-0.7417
X2.2417Y-1.4417
X2.3417Y-0.7417
X2.3417Y-1.4417
X2.4417Y-0.7417
X2.4417Y-1.4417
X2.5417Y-0.7417
X2.5417Y-1.4417
X2.6417Y-0.7417
X2.6417Y-1.4417
X2.7417Y-0.7417
X2.7417Y-1.4417
X2.8417Y-0.7417
X2.8417Y-1.4417
X2.9417Y-0.7417
X2.9417Y-1.4417
X3.0417Y-0.7417
X3.0417Y-1.4417
X3.1417Y-0.7417
X3.1417Y-0.9417
X3.1417Y-1.0417
X3.1417Y-1.1417
X3.1417Y-1.2417
X3.1417Y-1.4417
X3.2417Y-0.7417
X3.2417Y-1.4417
X3.3417Y-0.7417
X3.3417Y-1.4417
T3
G00X0.789Y-0.9217
M15
G01X0.7575Y-0.9217
M16
G05
G00X0.789Y-1.2618
M15
G01X0.7575Y-1.2618
M16
G05
G00X0.9594Y-0.9217
M15
G01X0.9161Y-0.9217
M16
G05
G00X0.9594Y-1.2618
M15
G01X0.9161Y-1.2618
M16
G05
M30
