G04 #@! TF.GenerationSoftware,KiCad,Pcbnew,8.0.8*
G04 #@! TF.CreationDate,2025-01-20T02:39:11+03:00*
G04 #@! TF.ProjectId,MDR32-K1986BE92FI-DK,4d445233-322d-44b3-9139-383642453932,rev?*
G04 #@! TF.SameCoordinates,Original*
G04 #@! TF.FileFunction,Soldermask,Bot*
G04 #@! TF.FilePolarity,Negative*
%FSLAX46Y46*%
G04 Gerber Fmt 4.6, Leading zero omitted, Abs format (unit mm)*
G04 Created by KiCad (PCBNEW 8.0.8) date 2025-01-20 02:39:11*
%MOMM*%
%LPD*%
G01*
G04 APERTURE LIST*
G04 Aperture macros list*
%AMRoundRect*
0 Rectangle with rounded corners*
0 $1 Rounding radius*
0 $2 $3 $4 $5 $6 $7 $8 $9 X,Y pos of 4 corners*
0 Add a 4 corners polygon primitive as box body*
4,1,4,$2,$3,$4,$5,$6,$7,$8,$9,$2,$3,0*
0 Add four circle primitives for the rounded corners*
1,1,$1+$1,$2,$3*
1,1,$1+$1,$4,$5*
1,1,$1+$1,$6,$7*
1,1,$1+$1,$8,$9*
0 Add four rect primitives between the rounded corners*
20,1,$1+$1,$2,$3,$4,$5,0*
20,1,$1+$1,$4,$5,$6,$7,0*
20,1,$1+$1,$6,$7,$8,$9,0*
20,1,$1+$1,$8,$9,$2,$3,0*%
G04 Aperture macros list end*
%ADD10R,1.700000X1.700000*%
%ADD11O,1.700000X1.700000*%
%ADD12C,0.650000*%
%ADD13O,2.100000X1.000000*%
%ADD14O,1.800000X1.000000*%
%ADD15RoundRect,0.225000X0.017678X-0.335876X0.335876X-0.017678X-0.017678X0.335876X-0.335876X0.017678X0*%
%ADD16RoundRect,0.225000X-0.335876X-0.017678X-0.017678X-0.335876X0.335876X0.017678X0.017678X0.335876X0*%
G04 APERTURE END LIST*
D10*
G04 #@! TO.C,J1*
X79800000Y-23920000D03*
D11*
X79800000Y-26460000D03*
X79800000Y-29000000D03*
X79800000Y-31540000D03*
G04 #@! TD*
D12*
G04 #@! TO.C,J4*
X23320000Y-24840000D03*
X23320000Y-30620000D03*
D13*
X23820000Y-23410000D03*
D14*
X19640000Y-23410000D03*
D13*
X23820000Y-32050000D03*
D14*
X19640000Y-32050000D03*
G04 #@! TD*
D10*
G04 #@! TO.C,J5*
X46780000Y-18840000D03*
D11*
X49320000Y-18840000D03*
X51860000Y-18840000D03*
X54400000Y-18840000D03*
X56940000Y-18840000D03*
X59480000Y-18840000D03*
X62020000Y-18840000D03*
X64560000Y-18840000D03*
X67100000Y-18840000D03*
X69640000Y-18840000D03*
X72180000Y-18840000D03*
X74720000Y-18840000D03*
X77260000Y-18840000D03*
X79800000Y-18840000D03*
X82340000Y-18840000D03*
X84880000Y-18840000D03*
G04 #@! TD*
D15*
G04 #@! TO.C,C8*
X59451992Y-24438008D03*
X60548008Y-23341992D03*
G04 #@! TD*
D10*
G04 #@! TO.C,J6*
X18840000Y-18840000D03*
D11*
X21380000Y-18840000D03*
X23920000Y-18840000D03*
X26460000Y-18840000D03*
X29000000Y-18840000D03*
X31540000Y-18840000D03*
X34080000Y-18840000D03*
X36620000Y-18840000D03*
X39160000Y-18840000D03*
X41700000Y-18840000D03*
G04 #@! TD*
D15*
G04 #@! TO.C,C6*
X57353984Y-26536016D03*
X58450000Y-25440000D03*
G04 #@! TD*
D10*
G04 #@! TO.C,J2*
X46780000Y-36620000D03*
D11*
X49320000Y-36620000D03*
X51860000Y-36620000D03*
X54400000Y-36620000D03*
X56940000Y-36620000D03*
X59480000Y-36620000D03*
X62020000Y-36620000D03*
X64560000Y-36620000D03*
X67100000Y-36620000D03*
X69640000Y-36620000D03*
X72180000Y-36620000D03*
X74720000Y-36620000D03*
X77260000Y-36620000D03*
X79800000Y-36620000D03*
X82340000Y-36620000D03*
X84880000Y-36620000D03*
G04 #@! TD*
D16*
G04 #@! TO.C,C11*
X62991992Y-22491992D03*
X64088008Y-23588008D03*
G04 #@! TD*
D10*
G04 #@! TO.C,J3*
X18840000Y-36620000D03*
D11*
X21380000Y-36620000D03*
X23920000Y-36620000D03*
X26460000Y-36620000D03*
X29000000Y-36620000D03*
X31540000Y-36620000D03*
X34080000Y-36620000D03*
X36620000Y-36620000D03*
X39160000Y-36620000D03*
X41700000Y-36620000D03*
G04 #@! TD*
M02*
