G04 #@! TF.GenerationSoftware,KiCad,Pcbnew,8.0.8*
G04 #@! TF.CreationDate,2025-01-20T02:39:11+03:00*
G04 #@! TF.ProjectId,MDR32-K1986BE92FI-DK,4d445233-322d-44b3-9139-383642453932,rev?*
G04 #@! TF.SameCoordinates,Original*
G04 #@! TF.FileFunction,Soldermask,Top*
G04 #@! TF.FilePolarity,Negative*
%FSLAX46Y46*%
G04 Gerber Fmt 4.6, Leading zero omitted, Abs format (unit mm)*
G04 Created by KiCad (PCBNEW 8.0.8) date 2025-01-20 02:39:11*
%MOMM*%
%LPD*%
G01*
G04 APERTURE LIST*
G04 Aperture macros list*
%AMRoundRect*
0 Rectangle with rounded corners*
0 $1 Rounding radius*
0 $2 $3 $4 $5 $6 $7 $8 $9 X,Y pos of 4 corners*
0 Add a 4 corners polygon primitive as box body*
4,1,4,$2,$3,$4,$5,$6,$7,$8,$9,$2,$3,0*
0 Add four circle primitives for the rounded corners*
1,1,$1+$1,$2,$3*
1,1,$1+$1,$4,$5*
1,1,$1+$1,$6,$7*
1,1,$1+$1,$8,$9*
0 Add four rect primitives between the rounded corners*
20,1,$1+$1,$2,$3,$4,$5,0*
20,1,$1+$1,$4,$5,$6,$7,0*
20,1,$1+$1,$6,$7,$8,$9,0*
20,1,$1+$1,$8,$9,$2,$3,0*%
%AMRotRect*
0 Rectangle, with rotation*
0 The origin of the aperture is its center*
0 $1 length*
0 $2 width*
0 $3 Rotation angle, in degrees counterclockwise*
0 Add horizontal line*
21,1,$1,$2,0,0,$3*%
%AMFreePoly0*
4,1,6,1.000000,0.000000,0.500000,-0.750000,-0.500000,-0.750000,-0.500000,0.750000,0.500000,0.750000,1.000000,0.000000,1.000000,0.000000,$1*%
%AMFreePoly1*
4,1,6,0.500000,-0.750000,-0.650000,-0.750000,-0.150000,0.000000,-0.650000,0.750000,0.500000,0.750000,0.500000,-0.750000,0.500000,-0.750000,$1*%
%AMFreePoly2*
4,1,14,0.355806,0.106694,0.419194,0.043306,0.437500,-0.000888,0.437500,-0.062500,0.419194,-0.106694,0.375000,-0.125000,-0.375000,-0.125000,-0.419194,-0.106694,-0.437500,-0.062500,-0.437500,0.062500,-0.419194,0.106694,-0.375000,0.125000,0.311612,0.125000,0.355806,0.106694,0.355806,0.106694,$1*%
%AMFreePoly3*
4,1,14,0.419194,0.106694,0.437500,0.062500,0.437500,0.000888,0.419194,-0.043306,0.355806,-0.106694,0.311612,-0.125000,-0.375000,-0.125000,-0.419194,-0.106694,-0.437500,-0.062500,-0.437500,0.062500,-0.419194,0.106694,-0.375000,0.125000,0.375000,0.125000,0.419194,0.106694,0.419194,0.106694,$1*%
%AMFreePoly4*
4,1,14,0.106694,0.419194,0.125000,0.375000,0.125000,-0.375000,0.106694,-0.419194,0.062500,-0.437500,-0.062500,-0.437500,-0.106694,-0.419194,-0.125000,-0.375000,-0.125000,0.311612,-0.106694,0.355806,-0.043306,0.419194,0.000888,0.437500,0.062500,0.437500,0.106694,0.419194,0.106694,0.419194,$1*%
%AMFreePoly5*
4,1,14,0.043306,0.419194,0.106694,0.355806,0.125000,0.311612,0.125000,-0.375000,0.106694,-0.419194,0.062500,-0.437500,-0.062500,-0.437500,-0.106694,-0.419194,-0.125000,-0.375000,-0.125000,0.375000,-0.106694,0.419194,-0.062500,0.437500,-0.000888,0.437500,0.043306,0.419194,0.043306,0.419194,$1*%
%AMFreePoly6*
4,1,14,0.419194,0.106694,0.437500,0.062500,0.437500,-0.062500,0.419194,-0.106694,0.375000,-0.125000,-0.311612,-0.125000,-0.355806,-0.106694,-0.419194,-0.043306,-0.437500,0.000888,-0.437500,0.062500,-0.419194,0.106694,-0.375000,0.125000,0.375000,0.125000,0.419194,0.106694,0.419194,0.106694,$1*%
%AMFreePoly7*
4,1,14,0.419194,0.106694,0.437500,0.062500,0.437500,-0.062500,0.419194,-0.106694,0.375000,-0.125000,-0.375000,-0.125000,-0.419194,-0.106694,-0.437500,-0.062500,-0.437500,-0.000888,-0.419194,0.043306,-0.355806,0.106694,-0.311612,0.125000,0.375000,0.125000,0.419194,0.106694,0.419194,0.106694,$1*%
%AMFreePoly8*
4,1,14,0.106694,0.419194,0.125000,0.375000,0.125000,-0.311612,0.106694,-0.355806,0.043306,-0.419194,-0.000888,-0.437500,-0.062500,-0.437500,-0.106694,-0.419194,-0.125000,-0.375000,-0.125000,0.375000,-0.106694,0.419194,-0.062500,0.437500,0.062500,0.437500,0.106694,0.419194,0.106694,0.419194,$1*%
%AMFreePoly9*
4,1,14,0.106694,0.419194,0.125000,0.375000,0.125000,-0.375000,0.106694,-0.419194,0.062500,-0.437500,0.000888,-0.437500,-0.043306,-0.419194,-0.106694,-0.355806,-0.125000,-0.311612,-0.125000,0.375000,-0.106694,0.419194,-0.062500,0.437500,0.062500,0.437500,0.106694,0.419194,0.106694,0.419194,$1*%
G04 Aperture macros list end*
%ADD10RoundRect,0.250000X-0.475000X0.250000X-0.475000X-0.250000X0.475000X-0.250000X0.475000X0.250000X0*%
%ADD11RoundRect,0.225000X0.250000X-0.225000X0.250000X0.225000X-0.250000X0.225000X-0.250000X-0.225000X0*%
%ADD12RoundRect,0.243750X-0.456250X0.243750X-0.456250X-0.243750X0.456250X-0.243750X0.456250X0.243750X0*%
%ADD13RoundRect,0.200000X-0.275000X0.200000X-0.275000X-0.200000X0.275000X-0.200000X0.275000X0.200000X0*%
%ADD14RoundRect,0.218750X0.256250X-0.218750X0.256250X0.218750X-0.256250X0.218750X-0.256250X-0.218750X0*%
%ADD15RoundRect,0.200000X0.275000X-0.200000X0.275000X0.200000X-0.275000X0.200000X-0.275000X-0.200000X0*%
%ADD16RoundRect,0.200000X-0.200000X-0.275000X0.200000X-0.275000X0.200000X0.275000X-0.200000X0.275000X0*%
%ADD17RoundRect,0.243750X0.456250X-0.243750X0.456250X0.243750X-0.456250X0.243750X-0.456250X-0.243750X0*%
%ADD18RotRect,1.000000X1.800000X135.000000*%
%ADD19RoundRect,0.375000X-0.625000X-0.375000X0.625000X-0.375000X0.625000X0.375000X-0.625000X0.375000X0*%
%ADD20RoundRect,0.500000X-0.500000X-1.400000X0.500000X-1.400000X0.500000X1.400000X-0.500000X1.400000X0*%
%ADD21RotRect,1.400000X1.200000X225.000000*%
%ADD22RoundRect,0.225000X0.017678X-0.335876X0.335876X-0.017678X-0.017678X0.335876X-0.335876X0.017678X0*%
%ADD23RoundRect,0.200000X0.200000X0.275000X-0.200000X0.275000X-0.200000X-0.275000X0.200000X-0.275000X0*%
%ADD24R,0.900000X1.700000*%
%ADD25RoundRect,0.218750X-0.256250X0.218750X-0.256250X-0.218750X0.256250X-0.218750X0.256250X0.218750X0*%
%ADD26R,1.700000X1.700000*%
%ADD27O,1.700000X1.700000*%
%ADD28FreePoly0,0.000000*%
%ADD29FreePoly1,0.000000*%
%ADD30RoundRect,0.225000X-0.250000X0.225000X-0.250000X-0.225000X0.250000X-0.225000X0.250000X0.225000X0*%
%ADD31RoundRect,0.250000X0.475000X-0.250000X0.475000X0.250000X-0.475000X0.250000X-0.475000X-0.250000X0*%
%ADD32RoundRect,0.225000X-0.335876X-0.017678X-0.017678X-0.335876X0.335876X0.017678X0.017678X0.335876X0*%
%ADD33RoundRect,0.150000X0.587500X0.150000X-0.587500X0.150000X-0.587500X-0.150000X0.587500X-0.150000X0*%
%ADD34RoundRect,0.225000X0.335876X0.017678X0.017678X0.335876X-0.335876X-0.017678X-0.017678X-0.335876X0*%
%ADD35RoundRect,0.225000X0.375000X-0.225000X0.375000X0.225000X-0.375000X0.225000X-0.375000X-0.225000X0*%
%ADD36FreePoly2,225.000000*%
%ADD37RoundRect,0.062500X0.220971X0.309359X-0.309359X-0.220971X-0.220971X-0.309359X0.309359X0.220971X0*%
%ADD38FreePoly3,225.000000*%
%ADD39FreePoly4,225.000000*%
%ADD40RoundRect,0.062500X-0.220971X0.309359X-0.309359X0.220971X0.220971X-0.309359X0.309359X-0.220971X0*%
%ADD41FreePoly5,225.000000*%
%ADD42FreePoly6,225.000000*%
%ADD43FreePoly7,225.000000*%
%ADD44FreePoly8,225.000000*%
%ADD45FreePoly9,225.000000*%
%ADD46RotRect,7.500000X7.500000X225.000000*%
%ADD47R,0.760000X1.250000*%
%ADD48RoundRect,0.250000X-0.425000X0.450000X-0.425000X-0.450000X0.425000X-0.450000X0.425000X0.450000X0*%
%ADD49C,0.650000*%
%ADD50RoundRect,0.150000X-0.400000X0.150000X-0.400000X-0.150000X0.400000X-0.150000X0.400000X0.150000X0*%
%ADD51RoundRect,0.150000X-0.425000X0.150000X-0.425000X-0.150000X0.425000X-0.150000X0.425000X0.150000X0*%
%ADD52RoundRect,0.075000X-0.500000X0.075000X-0.500000X-0.075000X0.500000X-0.075000X0.500000X0.075000X0*%
%ADD53O,2.100000X1.000000*%
%ADD54O,1.800000X1.000000*%
G04 APERTURE END LIST*
D10*
G04 #@! TO.C,C1*
X28985000Y-25080000D03*
X28985000Y-26980000D03*
G04 #@! TD*
D11*
G04 #@! TO.C,C4*
X27925000Y-33935000D03*
X27925000Y-32385000D03*
G04 #@! TD*
D12*
G04 #@! TO.C,D2*
X42025000Y-28622499D03*
X42025000Y-30497501D03*
G04 #@! TD*
D13*
G04 #@! TO.C,R22*
X26465000Y-32335000D03*
X26465000Y-33985000D03*
G04 #@! TD*
D14*
G04 #@! TO.C,F1*
X26860000Y-27037500D03*
X26860000Y-25462500D03*
G04 #@! TD*
D13*
G04 #@! TO.C,R16*
X29385000Y-21475000D03*
X29385000Y-23125000D03*
G04 #@! TD*
D15*
G04 #@! TO.C,R2*
X39605000Y-33985000D03*
X39605000Y-32335000D03*
G04 #@! TD*
G04 #@! TO.C,R6*
X32305000Y-33985000D03*
X32305000Y-32335000D03*
G04 #@! TD*
D16*
G04 #@! TO.C,R18*
X48130000Y-24510000D03*
X49780000Y-24510000D03*
G04 #@! TD*
D17*
G04 #@! TO.C,D4*
X42025000Y-26847500D03*
X42025000Y-24972500D03*
G04 #@! TD*
D18*
G04 #@! TO.C,Y2*
X66356117Y-21596117D03*
X68123883Y-23363883D03*
G04 #@! TD*
D19*
G04 #@! TO.C,U1*
X33515000Y-25430000D03*
X33515000Y-27730000D03*
X33515000Y-30030000D03*
D20*
X39815000Y-27730000D03*
G04 #@! TD*
D15*
G04 #@! TO.C,R7*
X38145000Y-33985000D03*
X38145000Y-32335000D03*
G04 #@! TD*
G04 #@! TO.C,R21*
X26465000Y-23125000D03*
X26465000Y-21475000D03*
G04 #@! TD*
D13*
G04 #@! TO.C,R10*
X35225000Y-21475000D03*
X35225000Y-23125000D03*
G04 #@! TD*
D21*
G04 #@! TO.C,Y1*
X56006777Y-21061142D03*
X54451142Y-22616777D03*
X55653223Y-23818858D03*
X57208858Y-22263223D03*
G04 #@! TD*
D22*
G04 #@! TO.C,C9*
X64763984Y-21096016D03*
X65860000Y-20000000D03*
G04 #@! TD*
D23*
G04 #@! TO.C,R20*
X49780000Y-30950000D03*
X48130000Y-30950000D03*
G04 #@! TD*
D24*
G04 #@! TO.C,SW3*
X49735000Y-22130000D03*
X46335000Y-22130000D03*
G04 #@! TD*
G04 #@! TO.C,SW1*
X46335000Y-33330000D03*
X49735000Y-33330000D03*
G04 #@! TD*
D15*
G04 #@! TO.C,R13*
X30845000Y-33985000D03*
X30845000Y-32335000D03*
G04 #@! TD*
D25*
G04 #@! TO.C,F2*
X26860000Y-28422500D03*
X26860000Y-29997500D03*
G04 #@! TD*
D15*
G04 #@! TO.C,R14*
X29385000Y-33985000D03*
X29385000Y-32335000D03*
G04 #@! TD*
D13*
G04 #@! TO.C,R8*
X33765000Y-21475000D03*
X33765000Y-23125000D03*
G04 #@! TD*
D26*
G04 #@! TO.C,J1*
X79800000Y-23920000D03*
D27*
X79800000Y-26460000D03*
X79800000Y-29000000D03*
X79800000Y-31540000D03*
G04 #@! TD*
D28*
G04 #@! TO.C,JP2*
X72990000Y-21100000D03*
D29*
X74440000Y-21100000D03*
G04 #@! TD*
D15*
G04 #@! TO.C,R4*
X33765000Y-33985000D03*
X33765000Y-32335000D03*
G04 #@! TD*
D30*
G04 #@! TO.C,C5*
X69980000Y-28155000D03*
X69980000Y-29705000D03*
G04 #@! TD*
D15*
G04 #@! TO.C,R3*
X36685000Y-33985000D03*
X36685000Y-32335000D03*
G04 #@! TD*
G04 #@! TO.C,R1*
X41065000Y-33985000D03*
X41065000Y-32335000D03*
G04 #@! TD*
D28*
G04 #@! TO.C,JP1*
X69685000Y-21100000D03*
D29*
X71135000Y-21100000D03*
G04 #@! TD*
D31*
G04 #@! TO.C,C2*
X28985000Y-30380000D03*
X28985000Y-28480000D03*
G04 #@! TD*
D32*
G04 #@! TO.C,C7*
X58191992Y-20031992D03*
X59288008Y-21128008D03*
G04 #@! TD*
D13*
G04 #@! TO.C,R9*
X36685000Y-21475000D03*
X36685000Y-23125000D03*
G04 #@! TD*
G04 #@! TO.C,R11*
X38145000Y-21475000D03*
X38145000Y-23125000D03*
G04 #@! TD*
D15*
G04 #@! TO.C,R5*
X35225000Y-33985000D03*
X35225000Y-32335000D03*
G04 #@! TD*
D13*
G04 #@! TO.C,R17*
X30845000Y-21475000D03*
X30845000Y-23125000D03*
G04 #@! TD*
D33*
G04 #@! TO.C,D3*
X44652500Y-23030000D03*
X44652500Y-21130000D03*
X42777500Y-22080000D03*
G04 #@! TD*
D34*
G04 #@! TO.C,C12*
X54308008Y-25668008D03*
X53211992Y-24571992D03*
G04 #@! TD*
D35*
G04 #@! TO.C,D1*
X31115000Y-29380000D03*
X31115000Y-26080000D03*
G04 #@! TD*
D22*
G04 #@! TO.C,C10*
X68861992Y-24718008D03*
X69958008Y-23621992D03*
G04 #@! TD*
D13*
G04 #@! TO.C,R12*
X32305000Y-21475000D03*
X32305000Y-23125000D03*
G04 #@! TD*
D36*
G04 #@! TO.C,U2*
X67791759Y-27261542D03*
D37*
X67438206Y-26907988D03*
X67084652Y-26554435D03*
X66731099Y-26200882D03*
X66377546Y-25847328D03*
X66023992Y-25493775D03*
X65670439Y-25140221D03*
X65316885Y-24786668D03*
X64963332Y-24433115D03*
X64609779Y-24079561D03*
X64256225Y-23726008D03*
X63902672Y-23372454D03*
X63549118Y-23018901D03*
X63195565Y-22665348D03*
X62842012Y-22311794D03*
D38*
X62488458Y-21958241D03*
D39*
X61551542Y-21958241D03*
D40*
X61197988Y-22311794D03*
X60844435Y-22665348D03*
X60490882Y-23018901D03*
X60137328Y-23372454D03*
X59783775Y-23726008D03*
X59430221Y-24079561D03*
X59076668Y-24433115D03*
X58723115Y-24786668D03*
X58369561Y-25140221D03*
X58016008Y-25493775D03*
X57662454Y-25847328D03*
X57308901Y-26200882D03*
X56955348Y-26554435D03*
X56601794Y-26907988D03*
D41*
X56248241Y-27261542D03*
D42*
X56248241Y-28198458D03*
D37*
X56601794Y-28552012D03*
X56955348Y-28905565D03*
X57308901Y-29259118D03*
X57662454Y-29612672D03*
X58016008Y-29966225D03*
X58369561Y-30319779D03*
X58723115Y-30673332D03*
X59076668Y-31026885D03*
X59430221Y-31380439D03*
X59783775Y-31733992D03*
X60137328Y-32087546D03*
X60490882Y-32441099D03*
X60844435Y-32794652D03*
X61197988Y-33148206D03*
D43*
X61551542Y-33501759D03*
D44*
X62488458Y-33501759D03*
D40*
X62842012Y-33148206D03*
X63195565Y-32794652D03*
X63549118Y-32441099D03*
X63902672Y-32087546D03*
X64256225Y-31733992D03*
X64609779Y-31380439D03*
X64963332Y-31026885D03*
X65316885Y-30673332D03*
X65670439Y-30319779D03*
X66023992Y-29966225D03*
X66377546Y-29612672D03*
X66731099Y-29259118D03*
X67084652Y-28905565D03*
X67438206Y-28552012D03*
D45*
X67791759Y-28198458D03*
D46*
X62020000Y-27730000D03*
G04 #@! TD*
D33*
G04 #@! TO.C,Q1*
X44652500Y-34330000D03*
X44652500Y-32430000D03*
X42777500Y-33380000D03*
G04 #@! TD*
D13*
G04 #@! TO.C,R15*
X27925000Y-21475000D03*
X27925000Y-23125000D03*
G04 #@! TD*
D47*
G04 #@! TO.C,SW2*
X45865000Y-24655000D03*
X44595000Y-24655000D03*
X44595000Y-30805000D03*
X45865000Y-30805000D03*
G04 #@! TD*
D48*
G04 #@! TO.C,C3*
X71780000Y-27580000D03*
X71780000Y-30280000D03*
G04 #@! TD*
D13*
G04 #@! TO.C,R19*
X39605000Y-21475000D03*
X39605000Y-23125000D03*
G04 #@! TD*
D49*
G04 #@! TO.C,J4*
X23320000Y-24840000D03*
X23320000Y-30620000D03*
D50*
X24420000Y-24530000D03*
D51*
X24395000Y-25330000D03*
D52*
X24395000Y-26480000D03*
X24395000Y-27480000D03*
X24395000Y-27980000D03*
X24395000Y-28980000D03*
D51*
X24395000Y-30130000D03*
D50*
X24420000Y-30930000D03*
X24420000Y-30930000D03*
D51*
X24395000Y-30130000D03*
D52*
X24395000Y-29480000D03*
X24395000Y-28480000D03*
X24395000Y-26980000D03*
X24395000Y-25980000D03*
D51*
X24395000Y-25330000D03*
D50*
X24420000Y-24530000D03*
D53*
X23820000Y-23410000D03*
D54*
X19640000Y-23410000D03*
D53*
X23820000Y-32050000D03*
D54*
X19640000Y-32050000D03*
G04 #@! TD*
D26*
G04 #@! TO.C,J5*
X46780000Y-18840000D03*
D27*
X49320000Y-18840000D03*
X51860000Y-18840000D03*
X54400000Y-18840000D03*
X56940000Y-18840000D03*
X59480000Y-18840000D03*
X62020000Y-18840000D03*
X64560000Y-18840000D03*
X67100000Y-18840000D03*
X69640000Y-18840000D03*
X72180000Y-18840000D03*
X74720000Y-18840000D03*
X77260000Y-18840000D03*
X79800000Y-18840000D03*
X82340000Y-18840000D03*
X84880000Y-18840000D03*
G04 #@! TD*
D26*
G04 #@! TO.C,J6*
X18840000Y-18840000D03*
D27*
X21380000Y-18840000D03*
X23920000Y-18840000D03*
X26460000Y-18840000D03*
X29000000Y-18840000D03*
X31540000Y-18840000D03*
X34080000Y-18840000D03*
X36620000Y-18840000D03*
X39160000Y-18840000D03*
X41700000Y-18840000D03*
G04 #@! TD*
D26*
G04 #@! TO.C,J2*
X46780000Y-36620000D03*
D27*
X49320000Y-36620000D03*
X51860000Y-36620000D03*
X54400000Y-36620000D03*
X56940000Y-36620000D03*
X59480000Y-36620000D03*
X62020000Y-36620000D03*
X64560000Y-36620000D03*
X67100000Y-36620000D03*
X69640000Y-36620000D03*
X72180000Y-36620000D03*
X74720000Y-36620000D03*
X77260000Y-36620000D03*
X79800000Y-36620000D03*
X82340000Y-36620000D03*
X84880000Y-36620000D03*
G04 #@! TD*
D26*
G04 #@! TO.C,J3*
X18840000Y-36620000D03*
D27*
X21380000Y-36620000D03*
X23920000Y-36620000D03*
X26460000Y-36620000D03*
X29000000Y-36620000D03*
X31540000Y-36620000D03*
X34080000Y-36620000D03*
X36620000Y-36620000D03*
X39160000Y-36620000D03*
X41700000Y-36620000D03*
G04 #@! TD*
M02*
